<svg width="555" height="555" viewBox="0 0 555 555" fill="none" xmlns="http://www.w3.org/2000/svg">
<g clip-path="url(#clip0_871_6574)">
<path d="M548.545 166.57L516.145 129.209C513.203 125.816 508.068 125.453 504.676 128.393C501.284 131.334 500.919 136.469 503.861 139.862L536.26 177.222C538.63 179.956 539.372 183.778 538.195 187.199L482.511 349.03C481.929 350.722 480.907 352.235 479.556 353.407C478.209 354.575 476.574 355.37 474.825 355.71C471.266 356.398 467.577 355.126 465.201 352.387L369.339 241.841C372.646 240.746 375.719 239.006 378.351 236.718C380.997 234.43 383.157 231.632 384.71 228.504L459.77 315.061C461.33 316.86 463.581 317.864 465.912 317.864C466.426 317.864 466.944 317.815 467.46 317.715C470.313 317.163 472.655 315.128 473.6 312.38L515.518 190.554C516.463 187.812 515.873 184.773 513.973 182.583L490.275 155.256C487.333 151.863 482.197 151.501 478.807 154.441C475.415 157.383 475.049 162.517 477.991 165.91L498.619 189.696L462.814 293.754L390.995 210.935L426.801 106.879L452.139 136.099C453.747 137.952 456.009 138.902 458.284 138.902C460.173 138.902 462.07 138.247 463.608 136.914C467 133.973 467.365 128.838 464.423 125.445L432.914 89.1103L440.566 66.872L478.046 110.091C479.653 111.945 481.916 112.894 484.191 112.894C486.079 112.894 487.976 112.24 489.514 110.906C492.906 107.965 493.272 102.831 490.33 99.4376C490.33 99.4376 436.678 37.5726 436.669 37.5617C430.502 30.4767 420.961 27.1781 411.754 28.9483L243.662 61.1648C234.385 62.9447 226.717 69.5961 223.647 78.5229L201.505 142.882L187.779 134.931C179.605 130.197 169.452 130.197 161.28 134.931L13.1858 220.711C5.05253 225.422 0 234.188 0 243.586V414.304C0 423.703 5.05253 432.468 13.1858 437.179C13.1858 437.179 161.312 522.981 161.328 522.989C165.336 525.301 169.902 526.521 174.529 526.521C179.177 526.521 183.759 525.29 187.778 522.961L335.871 437.182C344.005 432.472 349.057 423.706 349.057 414.306V396.376C349.057 396.376 478.021 371.647 478.099 371.629C482.574 370.73 486.758 368.682 490.209 365.69C493.719 362.645 496.375 358.713 497.886 354.32L553.57 192.489C556.628 183.603 554.703 173.671 548.545 166.57ZM306.734 387.933C303.171 388.611 299.489 387.335 297.118 384.599L241.882 320.904L259.812 310.519L305.577 363.297C307.135 365.096 309.387 366.1 311.719 366.1C312.227 366.1 435.185 342.589 435.185 342.589L450.594 360.358L306.734 387.933ZM200.964 344.605L227.556 329.203L284.832 395.25C286.989 397.739 289.568 399.758 292.402 401.262L200.964 454.225V344.605ZM349.057 245.958L351.055 245.575L422.873 328.394L349.057 342.538V245.958ZM332.797 345.653L314.791 349.104L312.448 346.402V280.031L332.797 268.245V345.653ZM296.187 327.65L274.137 302.221L296.187 289.449V327.65ZM239.022 83.8128C240.203 80.3787 243.155 77.8204 246.723 77.1354L414.82 44.9178C418.364 44.2359 422.037 45.5129 424.414 48.2478C426.782 50.986 427.523 54.806 426.347 58.2217L370.66 220.054C370.076 221.75 369.058 223.259 367.702 224.433C366.353 225.605 364.712 226.401 362.957 226.737L226.047 252.979C225.956 252.996 225.865 253.01 225.775 253.031L194.886 258.952C191.314 259.631 187.636 258.355 185.272 255.631C182.9 252.894 182.157 249.07 183.333 245.652L198.308 202.129L216.258 212.526L212.861 222.39C211.917 225.133 212.505 228.171 214.406 230.363C216.306 232.555 219.226 233.57 222.079 233.022L348.718 208.745C351.578 208.197 353.928 206.16 354.875 203.405L396.819 81.4844C397.763 78.7419 397.174 75.7034 395.273 73.5126C393.373 71.3219 390.453 70.3072 387.601 70.8547L260.973 95.1298C258.113 95.6783 255.764 97.7151 254.816 100.468L233.785 161.584L215.842 151.189L239.022 83.8128ZM206.61 280.237L201.422 274.254L224.519 269.827L224.54 269.851L206.61 280.237ZM167.957 240.36C164.902 249.242 166.827 259.174 172.989 266.285L192.283 288.535L174.529 298.819L79.1755 243.586L174.529 188.355L183.97 193.824L167.957 240.36ZM302.063 201.131L248.124 169.888L268.659 110.214L376.877 89.4648L341.031 193.661L302.063 201.131ZM21.3353 234.782L169.428 149.002C172.574 147.179 176.483 147.18 179.629 149.002L277.691 205.804L247.021 211.684L178.602 171.926C176.084 170.466 172.974 170.466 170.453 171.926L58.8808 236.551C56.3713 238.004 54.8255 240.685 54.8255 243.586C54.8255 246.487 56.3713 249.167 58.8808 250.621L170.454 315.249C171.713 315.98 173.12 316.344 174.529 316.344C175.936 316.344 177.344 315.979 178.603 315.249L272.743 260.721L330.924 249.433C330.089 250.62 329.014 251.644 327.723 252.393L179.628 338.174C176.536 339.966 172.526 339.967 169.429 338.174L21.3364 252.391C18.2047 250.577 16.26 247.203 16.26 243.586C16.26 239.969 18.2047 236.595 21.3353 234.782ZM16.26 414.304V268.242L36.6089 280.029V403.754C36.6089 406.654 38.1547 409.335 40.6641 410.789L148.093 473.016V496.533L21.3353 423.108C18.2047 421.295 16.26 417.922 16.26 414.304ZM312.447 403.393L332.796 399.492V414.306C332.796 417.924 330.851 421.298 327.721 423.112L179.627 508.892C176.54 510.68 172.54 510.686 169.446 508.902C166.304 507.091 164.352 503.713 164.352 500.087V429.907C164.352 425.417 160.713 421.777 156.222 421.777C151.731 421.777 148.092 425.417 148.092 429.907V454.226L52.8678 399.068V289.447L148.092 344.605V390.569C148.092 395.059 151.731 398.699 156.222 398.699C160.713 398.699 164.352 395.059 164.352 390.569V353.764C167.566 355.104 171.027 355.803 174.527 355.803C178.028 355.803 181.49 355.104 184.703 353.764V468.33C184.703 471.236 186.255 473.922 188.773 475.374C190.03 476.098 191.431 476.46 192.833 476.46C194.24 476.46 195.648 476.094 196.908 475.365L308.392 410.791C310.902 409.336 312.447 406.293 312.447 403.393Z" fill="#FFD9D9"/>
</g>
<defs>
<clipPath id="clip0_871_6574">
<rect width="555" height="555" fill="white"/>
</clipPath>
</defs>
</svg>
