<svg width="152" height="40" viewBox="0 0 152 40" fill="none" xmlns="http://www.w3.org/2000/svg">
<path d="M17.3643 16.4941H20.4364V35.2117H17.3643V16.4941Z" fill="white"/>
<path d="M31.122 29.2791C31.122 32.179 28.7177 32.4426 27.9162 32.4426C26.0463 32.4426 25.7791 30.7291 25.7791 29.8064V22.5566H22.707V29.6745C22.707 31.3882 23.2412 32.9699 24.3098 33.8926C25.2448 34.8153 26.447 35.2108 27.9162 35.2108C28.9848 35.2108 30.3205 34.9471 31.122 34.1563V35.2108H34.194V22.5566H31.122V29.2791Z" fill="white"/>
<path d="M40.2052 17.9434H37.133V22.5569H34.8623V25.4568H37.133V35.211H40.2052V25.4568H42.4759V22.5569H40.2052V17.9434Z" fill="white"/>
<path d="M52.0935 31.388C51.4256 31.9153 50.4907 32.3107 49.5557 32.3107C47.4185 32.3107 45.9493 30.729 45.9493 28.62C45.9493 26.511 47.4185 25.061 49.5557 25.061C50.4907 25.061 51.4256 25.3246 52.0935 25.9837L52.4942 26.3791L54.6314 24.4019L54.0971 24.0065C52.895 22.952 51.2921 22.293 49.5557 22.293C45.8157 22.293 43.0107 25.061 43.0107 28.7518C43.0107 32.4426 45.8157 35.2107 49.5557 35.2107C51.2921 35.2107 52.895 34.5516 54.0971 33.4971L54.6314 33.1017L52.4942 30.9926L52.0935 31.388Z" fill="white"/>
<path d="M65.4496 23.6121C64.5146 22.6894 63.5796 22.2939 62.1103 22.2939C61.0417 22.2939 59.9731 22.5576 59.1718 23.3484V16.4941H56.0996V35.2117H59.1718V28.2256C59.1718 25.3256 61.1753 25.0621 61.9767 25.0621C63.8468 25.0621 63.7131 26.7756 63.7131 27.6983V35.0798H66.7853V27.8301C66.7853 26.1165 66.3846 24.5348 65.4496 23.6121Z" fill="white"/>
<path d="M49.4213 30.8607C50.6016 30.8607 51.5584 29.9164 51.5584 28.7516C51.5584 27.5868 50.6016 26.6426 49.4213 26.6426C48.241 26.6426 47.2842 27.5868 47.2842 28.7516C47.2842 29.9164 48.241 30.8607 49.4213 30.8607Z" fill="#EF4335"/>
<path d="M13.09 30.5967C12.0214 31.6512 10.4186 32.3102 8.68215 32.3102C5.34286 32.3102 2.93857 29.674 2.93857 26.115C2.93857 22.556 5.34286 19.9197 8.81572 19.9197C10.4186 19.9197 12.0214 20.5788 13.2235 21.7652L13.6243 22.1606L15.6278 20.1834L15.2271 19.7879C13.4908 18.0743 11.22 17.1516 8.81572 17.1516C3.74 17.0199 0 20.9742 0 26.115C0 31.2557 3.74 35.2101 8.68215 35.2101C11.0864 35.2101 13.4908 34.2875 15.0936 32.5739L15.4943 32.1784L13.4908 30.2013L13.09 30.5967Z" fill="white"/>
<path d="M4.36242 10.4668H5.48757L3.82946 7.44023C4.70786 7.21465 5.2507 6.69769 5.2507 5.61678C5.2507 3.98131 4.00711 3.65234 2.27004 3.65234H0V10.4668H1.00671V7.60001H2.27004C2.45756 7.60001 2.62535 7.60001 2.81287 7.59062L4.36242 10.4668ZM2.349 4.46067C3.40506 4.46067 4.21438 4.58286 4.21438 5.63558C4.21438 6.68829 3.40506 6.79168 2.349 6.79168H1.00671V4.46067H2.349Z" fill="#ADACB6"/>
<path d="M6.69824 10.4668H11.5541V9.63965H7.70495V7.37443H11.3271V6.5473H7.70495V4.47947H11.5541V3.65234H6.69824V10.4668Z" fill="#ADACB6"/>
<path d="M12.0117 3.65234L14.4693 10.4668H15.6734L18.1013 3.65234H17.0453L15.1009 9.47986L13.1171 3.65234H12.0117Z" fill="#ADACB6"/>
<path d="M20.0526 3.65234H19.0459V10.4668H20.0526V3.65234Z" fill="#ADACB6"/>
<path d="M21.7539 10.4668H26.6098V9.63965H22.7606V7.37443H26.3828V6.5473H22.7606V4.47947H26.6098V3.65234H21.7539V10.4668Z" fill="#ADACB6"/>
<path d="M32.1103 3.65234H30.926L29.6034 9.37647L28.2216 3.65234H27.1162L28.9323 10.4668H30.1561L31.5083 4.86484L32.89 10.4668H34.1139L35.9003 3.65234H34.8442L33.5217 9.37647L32.1103 3.65234Z" fill="#ADACB6"/>
<path d="M36.9053 10.4668H41.7612V9.63965H37.912V7.37443H41.5342V6.5473H37.912V4.47947H41.7612V3.65234H36.9053V10.4668Z" fill="#ADACB6"/>
<path d="M47.7843 7.05486C47.7843 9.37647 46.3532 9.65845 44.8826 9.65845H43.9647V4.46067H44.8826C46.3532 4.46067 47.7843 4.74265 47.7843 7.05486ZM42.958 3.65234V10.4668H44.9122C47.1724 10.4668 48.8108 9.64905 48.8108 7.05486C48.8108 4.47007 47.1724 3.65234 44.9122 3.65234H42.958Z" fill="#ADACB6"/>
<path d="M53.1915 7.05401C53.1915 5.29635 54.2179 4.33763 55.5207 4.33763C56.8235 4.33763 57.85 5.29635 57.85 7.05401C57.85 8.81167 56.8235 9.77979 55.5207 9.77979C54.2179 9.77979 53.1915 8.81167 53.1915 7.05401ZM58.8765 7.05401C58.8765 4.99558 57.5835 3.5293 55.5207 3.5293C53.458 3.5293 52.165 4.99558 52.165 7.05401C52.165 9.11244 53.458 10.5881 55.5207 10.5881C57.5835 10.5881 58.8765 9.11244 58.8765 7.05401Z" fill="#ADACB6"/>
<path d="M65.9846 10.4668V3.65234H64.9779V9.45166L61.711 3.65234H60.2305V10.4668H61.2373V4.64866L64.514 10.4668H65.9846Z" fill="#ADACB6"/>
<path d="M83.4375 25.8828C81.5493 25.8828 80.3311 27.0734 80.3677 28.878H81.5128C81.5493 27.3742 82.4629 26.8353 83.4131 26.8353C84.4729 26.8353 85.0698 27.4619 85.0698 28.4144C85.0698 30.031 83.2426 31.7354 80.124 34.104V35.1317H86.4829V34.0664H81.6346C84.1075 32.2242 86.2393 30.3694 86.2393 28.264C86.2393 26.7225 85.0698 25.8828 83.4375 25.8828Z" fill="#ADACB6"/>
<path d="M93.2172 30.5824C93.2172 33.1265 92.3644 34.3421 90.9635 34.3421C89.5626 34.3421 88.7099 33.1265 88.7099 30.5824C88.7099 28.0634 89.5626 26.8353 90.9635 26.8353C92.3401 26.8353 93.2172 28.0634 93.2172 30.5824ZM94.3988 30.5824C94.3988 27.7125 93.3146 25.8828 90.9635 25.8828C88.6124 25.8828 87.5283 27.7125 87.5283 30.5824C87.5283 33.4523 88.6124 35.2946 90.9635 35.2946C93.3146 35.2946 94.3988 33.4523 94.3988 30.5824Z" fill="#ADACB6"/>
<path d="M104.321 35.1309H105.709L103.663 31.0955C104.747 30.7947 105.417 30.1054 105.417 28.6642C105.417 26.4836 103.882 26.0449 101.738 26.0449H98.9365V35.1309H100.179V31.3085H101.738C101.969 31.3085 102.177 31.3085 102.408 31.296L104.321 35.1309ZM101.835 27.1227C103.139 27.1227 104.138 27.2856 104.138 28.6893C104.138 30.0929 103.139 30.2307 101.835 30.2307H100.179V27.1227H101.835Z" fill="#ADACB6"/>
<path d="M107.204 35.1309H113.198V34.028H108.447V31.0077H112.917V29.9049H108.447V27.1478H113.198V26.0449H107.204V35.1309Z" fill="#ADACB6"/>
<path d="M113.761 26.0449L116.795 35.1309H118.281L121.278 26.0449H119.974L117.574 33.815L115.126 26.0449H113.761Z" fill="#ADACB6"/>
<path d="M123.686 26.0449H122.443V35.1309H123.686V26.0449Z" fill="#ADACB6"/>
<path d="M125.786 35.1309H131.78V34.028H127.029V31.0077H131.499V29.9049H127.029V27.1478H131.78V26.0449H125.786V35.1309Z" fill="#ADACB6"/>
<path d="M138.568 26.0449H137.106L135.474 33.6771L133.769 26.0449H132.404L134.646 35.1309H136.156L137.825 27.6616L139.531 35.1309H141.041L143.246 26.0449H141.943L140.31 33.6771L138.568 26.0449Z" fill="#ADACB6"/>
<path d="M144.122 28.3642C144.122 29.8681 145.328 30.5699 146.546 30.8456L147.642 31.0837C148.739 31.3469 149.543 31.7229 149.543 32.6879C149.543 33.5902 148.8 34.2168 147.484 34.2168C146.12 34.2168 145.279 33.5651 145.048 32.3119H143.829C144.061 34.1165 145.376 35.2946 147.46 35.2946C149.214 35.2946 150.822 34.3421 150.822 32.5751C150.822 30.7454 149.202 30.219 147.849 29.9182L146.826 29.6801C145.998 29.4921 145.389 29.0911 145.389 28.289C145.389 27.2739 146.582 26.9606 147.265 26.9606C148.142 26.9606 149.165 27.324 149.457 28.3642H150.663C150.31 26.6222 148.909 25.8828 147.313 25.8828C145.888 25.8828 144.122 26.6222 144.122 28.3642Z" fill="#ADACB6"/>
<path d="M86.7718 3.1256C86.9447 2.77584 87.4443 2.77584 87.6171 3.1256L89.1626 6.25216C89.2313 6.39105 89.364 6.48732 89.5175 6.50959L92.9732 7.01096C93.3598 7.06705 93.5142 7.54139 93.2344 7.81364L90.7338 10.2473C90.6227 10.3554 90.5721 10.5112 90.5982 10.6639L91.1886 14.1002C91.2545 14.4847 90.8505 14.7778 90.5047 14.5963L87.4138 12.9739C87.2765 12.9018 87.1125 12.9018 86.9752 12.9739L83.8843 14.5963C83.5385 14.7778 83.1344 14.4847 83.2004 14.1002L83.7908 10.6639C83.8169 10.5112 83.7662 10.3554 83.6551 10.2473L81.1546 7.81364C80.8748 7.54139 81.0292 7.06705 81.4158 7.01096L84.8715 6.50959C85.025 6.48732 85.1577 6.39105 85.2264 6.25217L86.7718 3.1256Z" fill="#EF4335"/>
<path d="M100.911 3.1256C101.084 2.77584 101.584 2.77584 101.756 3.1256L103.302 6.25216C103.371 6.39105 103.503 6.48732 103.657 6.50959L107.112 7.01096C107.499 7.06705 107.653 7.54139 107.374 7.81364L104.873 10.2473C104.762 10.3554 104.711 10.5112 104.737 10.6639L105.328 14.1002C105.394 14.4847 104.99 14.7778 104.644 14.5963L101.553 12.9739C101.416 12.9018 101.252 12.9018 101.114 12.9739L98.0239 14.5963C97.6781 14.7778 97.2741 14.4847 97.3401 14.1002L97.9304 10.6639C97.9565 10.5112 97.9059 10.3554 97.7948 10.2473L95.2942 7.81364C95.0145 7.54139 95.1688 7.06705 95.5554 7.01096L99.0111 6.50959C99.1646 6.48732 99.2973 6.39105 99.366 6.25217L100.911 3.1256Z" fill="#EF4335"/>
<path d="M115.051 3.1256C115.223 2.77584 115.723 2.77584 115.896 3.1256L117.441 6.25216C117.51 6.39105 117.643 6.48732 117.796 6.50959L121.251 7.01096C121.638 7.06705 121.792 7.54139 121.513 7.81364L119.013 10.2473C118.901 10.3554 118.85 10.5112 118.877 10.6639L119.467 14.1002C119.533 14.4847 119.129 14.7778 118.783 14.5963L115.693 12.9739C115.555 12.9018 115.391 12.9018 115.254 12.9739L112.163 14.5963C111.817 14.7778 111.413 14.4847 111.479 14.1002L112.07 10.6639C112.096 10.5112 112.045 10.3554 111.934 10.2473L109.433 7.81364C109.154 7.54139 109.308 7.06705 109.695 7.01096L113.15 6.50959C113.304 6.48732 113.436 6.39105 113.505 6.25217L115.051 3.1256Z" fill="#EF4335"/>
<path d="M129.19 3.1256C129.363 2.77584 129.862 2.77584 130.036 3.1256L131.58 6.25216C131.65 6.39105 131.782 6.48732 131.935 6.50959L135.391 7.01096C135.777 7.06705 135.932 7.54139 135.652 7.81364L133.152 10.2473C133.04 10.3554 132.99 10.5112 133.017 10.6639L133.607 14.1002C133.673 14.4847 133.269 14.7778 132.922 14.5963L129.832 12.9739C129.695 12.9018 129.53 12.9018 129.393 12.9739L126.303 14.5963C125.956 14.7778 125.552 14.4847 125.618 14.1002L126.208 10.6639C126.236 10.5112 126.185 10.3554 126.073 10.2473L123.573 7.81364C123.293 7.54139 123.448 7.06705 123.834 7.01096L127.29 6.50959C127.443 6.48732 127.575 6.39105 127.645 6.25217L129.19 3.1256Z" fill="#EF4335"/>
<path d="M143.329 3.1256C143.502 2.77584 144.002 2.77584 144.175 3.1256L145.72 6.25216C145.789 6.39105 145.921 6.48732 146.075 6.50959L149.53 7.01096C149.917 7.06705 150.071 7.54139 149.792 7.81364L147.292 10.2473C147.18 10.3554 147.129 10.5112 147.156 10.6639L147.747 14.1002C147.812 14.4847 147.408 14.7778 147.062 14.5963L143.971 12.9739C143.835 12.9018 143.67 12.9018 143.533 12.9739L140.442 14.5963C140.096 14.7778 139.692 14.4847 139.758 14.1002L140.348 10.6639C140.375 10.5112 140.324 10.3554 140.212 10.2473L137.712 7.81364C137.433 7.54139 137.587 7.06705 137.974 7.01096L141.43 6.50959C141.583 6.48732 141.715 6.39105 141.784 6.25217L143.329 3.1256Z" fill="#EF4335"/>
</svg>
