<svg width="78" height="80" viewBox="0 0 78 80" fill="none" xmlns="http://www.w3.org/2000/svg">
<path d="M77.6633 36.4779C77.6633 26.7351 73.8693 17.5745 66.9799 10.6835C60.0891 3.79409 50.9284 0 41.1855 0C31.4426 0 22.2822 3.79409 15.3911 10.6835C10.7416 15.3329 7.44912 21.0994 5.84223 27.3951C2.62502 28.6379 0.335938 31.7621 0.335938 35.4129V55.5407C0.335938 60.2783 4.19019 64.1324 8.92757 64.1324H11.5157C12.1631 64.1324 12.6876 63.6077 12.6876 62.9605C12.6876 62.3133 12.1631 61.7886 11.5157 61.7886H8.92772C5.48254 61.7886 2.67986 58.9858 2.67986 55.5407V35.4129C2.67986 31.967 5.4827 29.1634 8.92772 29.1634H42.1227C45.5679 29.1634 48.3705 31.9668 48.3705 35.4129V55.5407C48.3705 58.9858 45.5677 61.7886 42.1227 61.7886H35.182C34.5346 61.7886 34.0101 62.3133 34.0101 62.9605V70.2924C34.0101 70.8824 33.5679 71.132 33.4324 71.1943C33.297 71.257 32.8193 71.4307 32.3704 71.0467L21.8788 62.07C21.6666 61.8883 21.3963 61.7886 21.1169 61.7886H17.1044C16.457 61.7886 15.9325 62.3133 15.9325 62.9605C15.9325 63.6077 16.457 64.1324 17.1044 64.1324H20.6839L30.8466 72.8274C31.4688 73.3598 32.2313 73.6348 33.007 73.6348C33.4804 73.6348 33.9589 73.5323 34.4128 73.3232C35.61 72.772 36.3539 71.6106 36.3539 70.2924V64.1324H42.1227C46.8601 64.1324 50.7143 60.2781 50.7143 55.5407V35.4129C50.7143 30.6746 46.8601 26.8196 42.1227 26.8196H13.4768C15.3637 21.4403 18.8501 16.6264 23.4153 13.1415C28.5635 9.21132 34.7084 7.13381 41.1855 7.13381C57.3658 7.13381 70.5295 20.2975 70.5295 36.4778C70.5295 37.943 70.417 39.4102 70.1988 40.8597L69.4623 40.3183C69.5991 38.1467 68.3063 36.0493 66.1605 35.2684C64.8966 34.8086 63.5296 34.8681 62.311 35.4365C61.0922 36.0048 60.1677 37.0137 59.7078 38.2775L52.627 57.7319C51.6776 60.3405 53.0274 63.2352 55.6361 64.1846C56.1981 64.3891 56.7803 64.4908 57.3611 64.4908C58.0862 64.4908 58.8089 64.3321 59.4856 64.0164C60.2634 63.6538 60.9205 63.1111 61.4144 62.4378L61.5578 62.447L59.5822 67.3704C58.9417 68.9641 57.4184 69.994 55.7017 69.994H50.6154C49.4605 68.2832 47.504 67.156 45.2891 67.156C41.748 67.156 38.867 70.037 38.867 73.5781C38.867 77.1192 41.748 80 45.2891 80C47.5046 80 49.4615 78.8723 50.6163 77.1609H55.7018C60.3625 77.1609 64.4961 74.3664 66.233 70.0415L69.4293 62.0791C70.5367 61.4589 71.4262 60.4595 71.8784 59.2164L73.0439 56.0134C73.2651 55.4053 72.9515 54.7328 72.3434 54.5115C71.7346 54.2901 71.0627 54.6039 70.8415 55.212L69.676 58.4151C69.2138 59.6855 67.9485 60.5109 66.5993 60.4245L62.4596 60.1567L68.799 42.7396L72.1413 45.1964C73.2304 45.9968 73.6687 47.4432 73.2078 48.713L72.7543 49.9585C72.5328 50.5666 72.8464 51.2392 73.4543 51.4606C73.5868 51.5088 73.7221 51.5317 73.8551 51.5317C74.3337 51.5317 74.7831 51.2362 74.9564 50.7604L75.4103 49.514C75.5534 49.1198 75.6464 48.716 75.6937 48.3105C77 44.498 77.6633 40.5178 77.6633 36.4779ZM45.2889 77.6562C43.0402 77.6562 41.2106 75.8268 41.2106 73.5781C41.2106 71.3293 43.0402 69.4998 45.2889 69.4998C47.5377 69.4998 49.3673 71.3291 49.3673 73.5781C49.3671 75.8267 47.5376 77.6562 45.2889 77.6562ZM66.6266 62.7689L64.0578 69.168C62.6799 72.5996 59.3997 74.817 55.7017 74.817H51.5899C51.6687 74.4159 51.711 74.0018 51.711 73.5779C51.711 73.1535 51.6687 72.7392 51.5896 72.3376H55.7017C58.3808 72.3376 60.7575 70.7309 61.7572 68.2437L64.0196 62.6061L66.448 62.763C66.5076 62.7671 66.5669 62.7672 66.6266 62.7689ZM66.9671 40.9195L59.8862 60.3739C59.6405 61.0492 59.1464 61.5885 58.4951 61.8922C57.8437 62.196 57.1133 62.228 56.4378 61.982C55.0436 61.4747 54.3221 59.9277 54.8295 58.5334L61.9103 39.0791C62.1561 38.4037 62.6502 37.8645 63.3014 37.5608C63.6632 37.392 64.0494 37.3072 64.4371 37.3072C64.7472 37.3072 65.0586 37.3615 65.3588 37.4709C66.753 37.9783 67.4744 39.5253 66.9671 40.9195ZM72.3128 42.4138C72.6842 40.46 72.8732 38.467 72.8732 36.4779C72.8732 19.0053 58.6581 4.79019 41.1855 4.79019C34.19 4.79019 27.5535 7.0338 21.9931 11.2787C16.8483 15.2064 12.972 20.6994 11.0049 26.8197H8.92772C8.75897 26.8197 8.59178 26.826 8.42538 26.8357C10.021 21.3916 12.9792 16.4101 17.0483 12.341C23.4966 5.89411 32.0685 2.34377 41.1855 2.34377C50.3024 2.34377 58.8745 5.89411 65.3227 12.3406C71.7693 18.7887 75.3195 27.3608 75.3195 36.4778C75.3195 39.0778 75.0257 41.6511 74.4453 44.1652C74.1779 43.8488 73.8723 43.5599 73.5292 43.3078L72.3128 42.4138Z" fill="#6128E3"/>
</svg>
