<svg width="64" height="64" viewBox="0 0 64 64" fill="none" xmlns="http://www.w3.org/2000/svg">
<path d="M38 13H35V10C35 9.73478 34.8946 9.48043 34.7071 9.29289C34.5196 9.10536 34.2652 9 34 9H30C29.7348 9 29.4804 9.10536 29.2929 9.29289C29.1054 9.48043 29 9.73478 29 10V13H26C25.7348 13 25.4804 13.1054 25.2929 13.2929C25.1054 13.4804 25 13.7348 25 14V18C25 18.2652 25.1054 18.5196 25.2929 18.7071C25.4804 18.8946 25.7348 19 26 19H29V22C29 22.2652 29.1054 22.5196 29.2929 22.7071C29.4804 22.8946 29.7348 23 30 23H34C34.2652 23 34.5196 22.8946 34.7071 22.7071C34.8946 22.5196 35 22.2652 35 22V19H38C38.2652 19 38.5196 18.8946 38.7071 18.7071C38.8946 18.5196 39 18.2652 39 18V14C39 13.7348 38.8946 13.4804 38.7071 13.2929C38.5196 13.1054 38.2652 13 38 13ZM37 17H34C33.7348 17 33.4804 17.1054 33.2929 17.2929C33.1054 17.4804 33 17.7348 33 18V21H31V18C31 17.7348 30.8946 17.4804 30.7071 17.2929C30.5196 17.1054 30.2652 17 30 17H27V15H30C30.2652 15 30.5196 14.8946 30.7071 14.7071C30.8946 14.5196 31 14.2652 31 14V11H33V14C33 14.2652 33.1054 14.5196 33.2929 14.7071C33.4804 14.8946 33.7348 15 34 15H37V17Z" fill="#6128E3"/>
<path d="M59.73 18.3614C59.7502 18.1855 59.7603 18.0085 59.76 17.8314C59.7552 16.9148 59.4372 16.0274 58.8588 15.3162C58.2804 14.6051 57.4764 14.113 56.58 13.9214C55.566 13.7284 54.5166 13.9278 53.644 14.4792C52.7715 15.0305 52.1409 15.8928 51.88 16.8914L47.48 29.5514C47.4148 29.5773 47.3513 29.6074 47.29 29.6414L38.45 34.8214C37.0973 35.616 35.9753 36.7498 35.1949 38.1107C34.4144 39.4716 34.0026 41.0126 34 42.5814V52.0014C33.7348 52.0014 33.4804 52.1068 33.2929 52.2943C33.1054 52.4819 33 52.7362 33 53.0014V61.0014C33 61.2666 33.1054 61.521 33.2929 61.7085C33.4804 61.8961 33.7348 62.0014 34 62.0014H48C48.2652 62.0014 48.5196 61.8961 48.7071 61.7085C48.8946 61.521 49 61.2666 49 61.0014V53.0014C49 52.7362 48.8946 52.4819 48.7071 52.2943C48.5196 52.1068 48.2652 52.0014 48 52.0014V49.8014C48.0019 49.3791 48.0918 48.9617 48.2639 48.576C48.4361 48.1904 48.6868 47.8448 49 47.5614L55.76 41.5514C56.4994 40.9044 57.0287 40.0513 57.28 39.1014L61.62 22.8714C61.7127 22.5325 61.7597 22.1828 61.76 21.8314C61.7561 21.1257 61.5664 20.4335 61.2101 19.8244C60.8537 19.2152 60.3432 18.7107 59.73 18.3614V18.3614ZM53.79 17.4814C53.9128 16.9643 54.2259 16.5124 54.667 16.2158C55.1081 15.9193 55.6448 15.7999 56.17 15.8814C56.6182 15.9753 57.0207 16.2202 57.3101 16.5751C57.5994 16.93 57.7583 17.3735 57.76 17.8314V17.8514C56.8668 17.868 56.0034 18.1759 55.3012 18.7283C54.599 19.2806 54.0965 20.0472 53.87 20.9114L51.08 29.5214C50.6576 29.3211 50.2047 29.1926 49.74 29.1414L53.79 17.4814ZM47 60.0014H35V54.0014H47V60.0014ZM59.69 22.3514L55.34 38.5914C55.1895 39.1558 54.8765 39.6634 54.44 40.0514L47.67 46.0614C47.1461 46.5338 46.7269 47.1106 46.4393 47.7547C46.1517 48.3989 46.0021 49.096 46 49.8014V52.0014H36V42.5814C36.005 41.3614 36.3264 40.1635 36.9328 39.1048C37.5393 38.0461 38.4101 37.1629 39.46 36.5414L48.29 31.3714C48.5177 31.2388 48.7693 31.1524 49.0305 31.1173C49.2916 31.0822 49.5571 31.0991 49.8117 31.1669C50.0663 31.2348 50.305 31.3522 50.5141 31.5126C50.7232 31.673 50.8985 31.8731 51.03 32.1014C51.2897 32.5635 51.3614 33.1079 51.23 33.6214C51.1605 33.875 51.0418 34.1124 50.8805 34.32C50.7192 34.5276 50.5185 34.7014 50.29 34.8314L44.56 38.1414C44.3423 38.2798 44.1866 38.4969 44.1252 38.7474C44.0638 38.9979 44.1016 39.2625 44.2307 39.4858C44.3598 39.7091 44.5701 39.8739 44.8179 39.9457C45.0656 40.0176 45.3315 39.991 45.56 39.8714L51.29 36.5614C51.748 36.3016 52.1494 35.9527 52.4705 35.5354C52.7917 35.1181 53.0261 34.6407 53.16 34.1314C53.4322 33.1082 53.2884 32.0189 52.76 31.1014L52.7 31.0114L55.79 21.4814C55.9128 20.9643 56.2259 20.5124 56.667 20.2158C57.1081 19.9193 57.6448 19.7999 58.17 19.8814C58.6182 19.9753 59.0207 20.2202 59.3101 20.5751C59.5994 20.93 59.7583 21.3735 59.76 21.8314C59.7634 22.0073 59.7398 22.1827 59.69 22.3514V22.3514Z" fill="#6128E3"/>
<path d="M30.0002 51.9999V42.5799C29.9976 41.0111 29.5858 39.4701 28.8054 38.1092C28.0249 36.7483 26.9029 35.6145 25.5502 34.8199L16.7102 29.6299C16.6502 29.5999 16.5802 29.5799 16.5202 29.5499L12.1502 16.9599C11.8962 15.9467 11.2657 15.0684 10.387 14.5036C9.5083 13.9389 8.4474 13.7301 7.42023 13.9199C6.52383 14.1115 5.71979 14.6036 5.14142 15.3147C4.56305 16.0259 4.24508 16.9133 4.24023 17.8299C4.23997 18.007 4.24999 18.184 4.27023 18.3599C3.657 18.7092 3.14654 19.2138 2.79019 19.8229C2.43383 20.432 2.24416 21.1242 2.24023 21.8299C2.24218 22.1805 2.28582 22.5297 2.37023 22.8699L6.72023 39.0899C6.96882 40.0438 7.4984 40.9009 8.24023 41.5499L14.9902 47.5599C15.3066 47.8414 15.56 48.1863 15.734 48.5723C15.9081 48.9582 15.9988 49.3766 16.0002 49.7999V51.9999C15.735 51.9999 15.4807 52.1053 15.2931 52.2928C15.1056 52.4804 15.0002 52.7347 15.0002 52.9999V60.9999C15.0002 61.2652 15.1056 61.5195 15.2931 61.7071C15.4807 61.8946 15.735 61.9999 16.0002 61.9999H30.0002C30.2655 61.9999 30.5198 61.8946 30.7073 61.7071C30.8949 61.5195 31.0002 61.2652 31.0002 60.9999V52.9999C31.0002 52.7347 30.8949 52.4804 30.7073 52.2928C30.5198 52.1053 30.2655 51.9999 30.0002 51.9999ZM6.24023 17.8299C6.24147 17.3734 6.39887 16.931 6.68629 16.5763C6.97372 16.2215 7.37386 15.9758 7.82023 15.8799C8.35989 15.8016 8.90922 15.9302 9.35804 16.2399C9.80686 16.5496 10.122 17.0176 10.2402 17.5499L14.2602 29.1399C13.7955 29.1911 13.3426 29.3196 12.9202 29.5199L10.1502 20.9599C9.9248 20.0872 9.42127 19.3116 8.71581 18.7505C8.01035 18.1893 7.14134 17.8732 6.24023 17.8499V17.8299ZM16.3202 46.0599L9.56024 40.0499C9.12129 39.6599 8.80805 39.1483 8.66023 38.5799L4.30023 22.3499C4.25884 22.1798 4.23869 22.0051 4.24023 21.8299C4.24147 21.3734 4.39887 20.931 4.68629 20.5763C4.97372 20.2215 5.37386 19.9758 5.82023 19.8799C6.3561 19.7995 6.90254 19.925 7.34965 20.2311C7.79676 20.5372 8.11138 21.0013 8.23023 21.5299L11.3002 31.0099L11.2402 31.0999C10.7118 32.0174 10.568 33.1068 10.8402 34.1299C10.9741 34.6392 11.2085 35.1166 11.5297 35.5339C11.8508 35.9512 12.2522 36.3001 12.7102 36.5599L18.4402 39.8699C18.6688 39.9895 18.9347 40.0161 19.1824 39.9443C19.4301 39.8724 19.6405 39.7076 19.7695 39.4843C19.8986 39.261 19.9364 38.9965 19.875 38.746C19.8137 38.4954 19.6579 38.2783 19.4402 38.1399L13.7102 34.8299C13.4817 34.6999 13.2811 34.5262 13.1198 34.3185C12.9585 34.1109 12.8397 33.8735 12.7702 33.6199C12.6389 33.1064 12.7105 32.562 12.9702 32.0999C13.1009 31.8721 13.2752 31.6722 13.4831 31.5117C13.691 31.3512 13.9285 31.2332 14.182 31.1645C14.4355 31.0958 14.7 31.0777 14.9605 31.1112C15.221 31.1448 15.4724 31.2293 15.7002 31.3599L24.5402 36.5399C25.5902 37.1614 26.4609 38.0446 27.0674 39.1033C27.6739 40.162 27.9953 41.3599 28.0002 42.5799V51.9999H18.0002V49.7999C17.9985 49.0935 17.848 48.3954 17.5586 47.751C17.2691 47.1066 16.8472 46.5304 16.3202 46.0599ZM29.0002 59.9999H17.0002V53.9999H29.0002V59.9999Z" fill="#6128E3"/>
<path d="M46.1474 5.13257C45.2191 4.20261 44.1165 3.46485 42.9027 2.9615C41.6889 2.45816 40.3878 2.19913 39.0737 2.19922C37.7597 2.19931 36.4586 2.45853 35.2449 2.96205C34.0312 3.46556 32.9287 4.20348 32.0004 5.13357V5.13357C31.0723 4.20346 29.9699 3.46553 28.7562 2.96204C27.5425 2.45855 26.2414 2.19939 24.9274 2.19939C23.6135 2.19939 22.3124 2.45855 21.0987 2.96204C19.885 3.46553 18.7826 4.20346 17.8544 5.13357C15.9828 7.00925 14.9316 9.55081 14.9316 12.2006C14.9316 14.8503 15.9828 17.3919 17.8544 19.2676L31.2944 32.7076C31.482 32.895 31.7363 33.0004 32.0014 33.0004C32.2666 33.0004 32.5209 32.895 32.7084 32.7076L46.1484 19.2676C48.02 17.3916 49.071 14.8498 49.0708 12.1999C49.0706 9.54994 48.0193 7.00829 46.1474 5.13257V5.13257ZM32.0004 30.5866L19.2674 17.8536C18.1496 16.7342 17.3887 15.3085 17.081 13.7567C16.7732 12.205 16.9325 10.5968 17.5386 9.13553C18.1447 7.67426 19.1704 6.4255 20.4862 5.54711C21.8019 4.66871 23.3485 4.20012 24.9304 4.20057C25.9813 4.19697 27.0224 4.40264 27.993 4.80559C28.9635 5.20855 29.8441 5.80072 30.5834 6.54757L31.2934 7.25758C31.481 7.44505 31.7353 7.55036 32.0004 7.55036C32.2656 7.55036 32.5199 7.44505 32.7074 7.25758L33.4194 6.54558C34.1618 5.80183 35.0436 5.21178 36.0143 4.80919C36.985 4.4066 38.0256 4.19938 39.0764 4.19938C40.1273 4.19938 41.1679 4.4066 42.1386 4.80919C43.1093 5.21178 43.991 5.80183 44.7334 6.54558C46.2314 8.04555 47.0727 10.0787 47.0727 12.1986C47.0727 14.3184 46.2314 16.3516 44.7334 17.8516L32.0004 30.5866Z" fill="#6128E3"/>
</svg>
