<svg width="25" height="24" viewBox="0 0 25 24" fill="none" xmlns="http://www.w3.org/2000/svg">
<g clip-path="url(#clip0_1494_10299)">
<path d="M24.0018 1.59631L15.0385 7.94062L13.5677 8.98408C12.7885 9.54766 11.725 9.54766 10.9458 8.98408L9.47501 7.94062L0.500977 1.60673C1.00012 0.923318 1.80641 0.518856 2.66456 0.521497H21.8489C22.7008 0.522231 23.5009 0.921703 24.0018 1.59631Z" fill="#FFD54F"/>
<path d="M0.500965 1.60547L9.475 7.93936L0.778089 16.4541C0.278696 15.964 -0.00122571 15.2995 2.32704e-05 14.6072V3.12896C-0.00232482 2.58192 0.173082 2.04838 0.500965 1.60547Z" fill="#FFC107"/>
<path d="M24.513 3.12962V14.6079C24.5143 15.3002 24.2344 15.9647 23.735 16.4548L15.0381 7.94006L24.0014 1.5957C24.3342 2.04071 24.5134 2.57802 24.513 3.12962Z" fill="#FFC107"/>
<path d="M15.9867 19.3045C15.279 19.3045 14.9209 18.7827 14.9209 17.7393C14.9384 16.2813 13.7453 15.0856 12.2562 15.0686C10.7671 15.0515 9.54581 16.2195 9.52838 17.6775C9.51094 19.1354 10.704 20.3311 12.1931 20.3482C12.9912 20.3573 13.7524 20.0198 14.2719 19.4266C14.6257 20.0203 15.2851 20.3745 15.9867 20.3479C18.1183 20.3479 18.1183 18.3841 18.1183 17.7393C18.1184 14.5696 15.494 12.0001 12.2566 12C9.01914 11.9999 6.39463 14.5694 6.39453 17.7391C6.39448 20.9087 9.01889 23.4782 12.2563 23.4783C13.7773 23.4784 15.2388 22.8995 16.332 21.8642C16.5437 21.6625 16.5482 21.331 16.3422 21.1238C16.1361 20.9166 15.7976 20.9122 15.586 21.1139C13.6795 22.9143 10.6433 22.8605 8.80442 20.994C6.96557 19.1274 7.02042 16.1548 8.92692 14.3544C10.8334 12.5541 13.8696 12.6078 15.7085 14.4744C16.572 15.3509 17.0539 16.5216 17.0525 17.7393C17.0525 18.909 16.784 19.3045 15.9867 19.3045ZM12.2565 19.3045C11.3735 19.3045 10.6578 18.6037 10.6578 17.7393C10.6578 16.8748 11.3735 16.174 12.2565 16.174C13.1394 16.174 13.8552 16.8748 13.8552 17.7393C13.8552 18.6037 13.1394 19.3045 12.2565 19.3045Z" fill="#455A64"/>
<path d="M15.0387 7.94141L13.5679 8.98487C12.7887 9.54844 11.7252 9.54844 10.946 8.98487L9.47523 7.94141L0.77832 16.4562C1.27896 16.9451 1.95761 17.2192 2.66478 17.2179H5.35589C5.6442 13.4867 8.96735 10.6907 12.7784 10.973C16.1886 11.2256 18.899 13.8792 19.1569 17.2179H21.8491C22.5563 17.2191 23.235 16.9451 23.7356 16.4562L15.0387 7.94141Z" fill="#FFA000"/>
</g>
<defs>
<clipPath id="clip0_1494_10299">
<rect width="24.5134" height="24" fill="white"/>
</clipPath>
</defs>
</svg>
