<svg width="48" height="48" viewBox="0 0 48 48" fill="none" xmlns="http://www.w3.org/2000/svg">
<g clip-path="url(#clip0_885_6770)">
<path d="M46.618 29.0948C50.094 13.4747 36.41 -0.715252 20.34 2.00875C11.616 -3.40525 0 2.71275 0 13.0927C0 15.5067 0.666 17.7668 1.824 19.7148C-1.406 35.3708 12.39 49.3568 28.446 46.4468C30.318 47.4368 32.454 48.0008 34.724 48.0008C44.622 48.0008 50.96 37.7348 46.618 29.0948ZM24.192 39.7588C19.508 39.7588 14.932 38.6287 12.224 34.7607C8.188 29.0527 13.51 26.1968 16.122 28.3728C18.302 30.2108 17.618 34.6567 24.02 34.6567C26.842 34.6567 30.326 33.4528 30.326 30.6548C30.326 25.0247 17.836 27.6887 12.87 21.5507C11.046 19.3027 10.702 15.3367 12.942 12.4607C16.846 7.43675 28.302 7.13075 33.228 10.9247C37.776 14.4447 36.548 19.1167 32.878 19.1167C28.464 19.1167 30.784 13.3407 23.658 13.3407C18.492 13.3407 16.46 17.0147 20.098 18.8027C24.94 21.2068 37.598 20.4567 37.598 30.0088C37.582 36.7228 31.104 39.7588 24.192 39.7588Z" fill="#03A9F4"/>
</g>
<defs>
<clipPath id="clip0_885_6770">
<rect width="48" height="48" fill="white"/>
</clipPath>
</defs>
</svg>
