<svg width="48" height="48" viewBox="0 0 48 48" fill="none" xmlns="http://www.w3.org/2000/svg">
<g clip-path="url(#clip0_885_6763)">
<path d="M24 48C37.2548 48 48 37.2548 48 24C48 10.7452 37.2548 0 24 0C10.7452 0 0 10.7452 0 24C0 37.2548 10.7452 48 24 48Z" fill="#039BE5"/>
<path d="M10.9815 23.4804L34.1215 14.5584C35.1955 14.1704 36.1335 14.8204 35.7855 16.4444L35.7875 16.4424L31.8475 35.0044C31.5555 36.3204 30.7735 36.6404 29.6795 36.0204L23.6795 31.5984L20.7855 34.3864C20.4655 34.7064 20.1955 34.9764 19.5755 34.9764L20.0015 28.8704L31.1215 18.8244C31.6055 18.3984 31.0135 18.1584 30.3755 18.5824L16.6335 27.2344L10.7095 25.3864C9.42355 24.9784 9.39555 24.1004 10.9815 23.4804Z" fill="white"/>
</g>
<defs>
<clipPath id="clip0_885_6763">
<rect width="48" height="48" fill="white"/>
</clipPath>
</defs>
</svg>
