<svg width="48" height="48" viewBox="0 0 48 48" fill="none" xmlns="http://www.w3.org/2000/svg">
<g clip-path="url(#clip0_885_6762)">
<path d="M24.006 0H23.994C10.761 0 0 10.764 0 24C0 29.25 1.692 34.116 4.569 38.067L1.578 46.983L10.803 44.034C14.598 46.548 19.125 48 24.006 48C37.239 48 48 37.233 48 24C48 10.767 37.239 0 24.006 0Z" fill="#4CAF50"/>
<path d="M37.9707 33.8906C37.3917 35.5256 35.0937 36.8816 33.2607 37.2776C32.0067 37.5446 30.3687 37.7576 24.8547 35.4716C17.8017 32.5496 13.2597 25.3826 12.9057 24.9176C12.5667 24.4526 10.0557 21.1226 10.0557 17.6786C10.0557 14.2346 11.8047 12.5576 12.5097 11.8376C13.0887 11.2466 14.0457 10.9766 14.9637 10.9766C15.2607 10.9766 15.5277 10.9916 15.7677 11.0036C16.4727 11.0336 16.8267 11.0756 17.2917 12.1886C17.8707 13.5836 19.2807 17.0276 19.4487 17.3816C19.6197 17.7356 19.7907 18.2156 19.5507 18.6806C19.3257 19.1606 19.1277 19.3736 18.7737 19.7816C18.4197 20.1896 18.0837 20.5016 17.7297 20.9396C17.4057 21.3206 17.0397 21.7286 17.4477 22.4336C17.8557 23.1236 19.2657 25.4246 21.3417 27.2726C24.0207 29.6576 26.1927 30.4196 26.9697 30.7436C27.5487 30.9836 28.2387 30.9266 28.6617 30.4766C29.1987 29.8976 29.8617 28.9376 30.5367 27.9926C31.0167 27.3146 31.6227 27.2306 32.2587 27.4706C32.9067 27.6956 36.3357 29.3906 37.0407 29.7416C37.7457 30.0956 38.2107 30.2636 38.3817 30.5606C38.5497 30.8576 38.5497 32.2526 37.9707 33.8906Z" fill="#FAFAFA"/>
</g>
<defs>
<clipPath id="clip0_885_6762">
<rect width="48" height="48" fill="white"/>
</clipPath>
</defs>
</svg>
