<svg width="95" height="95" viewBox="0 0 95 95" fill="none" xmlns="http://www.w3.org/2000/svg">
<rect width="95" height="95" rx="47.5" fill="url(#paint0_linear_2158_51322)"/>
<g clip-path="url(#clip0_2158_51322)">
<path d="M37.789 80.0019C33.4794 80.0017 29.2666 78.7236 25.6834 76.3291C22.1002 73.9347 19.3075 70.5315 17.6584 66.5499C16.0093 62.5682 15.5779 58.187 16.4188 53.9603C17.2597 49.7335 19.3351 45.851 22.3825 42.8037C25.4299 39.7564 29.3125 37.6812 33.5394 36.8405C37.7662 35.9998 42.1474 36.4314 46.1289 38.0806C50.1105 39.7299 53.5135 42.5228 55.9078 46.1061C58.3021 49.6894 59.58 53.9023 59.58 58.2119C59.5734 63.9891 57.2754 69.5278 53.1902 73.6128C49.105 77.6978 43.5662 79.9955 37.789 80.0019ZM37.789 39.1659C34.0218 39.1659 30.3392 40.283 27.207 42.376C24.0747 44.4689 21.6334 47.4437 20.1918 50.9241C18.7502 54.4046 18.3731 58.2344 19.1081 61.9291C19.8431 65.6239 21.6572 69.0178 24.3211 71.6815C26.985 74.3452 30.3789 76.1592 34.0737 76.894C37.7686 77.6288 41.5983 77.2515 45.0787 75.8097C48.559 74.368 51.5337 71.9265 53.6265 68.7941C55.7193 65.6617 56.8362 61.9791 56.836 58.2119C56.8302 53.1622 54.8216 48.321 51.2508 44.7504C47.68 41.1798 42.8387 39.1714 37.789 39.1659Z" fill="white"/>
<path d="M62.2929 51.416C61.9291 51.416 61.5801 51.2714 61.3228 51.0141C61.0655 50.7568 60.9209 50.4078 60.9209 50.044C60.9209 49.6801 61.0655 49.3311 61.3228 49.0738C61.5801 48.8165 61.9291 48.672 62.2929 48.672C65.2524 48.672 68.1454 47.7944 70.606 46.1502C73.0667 44.506 74.9846 42.169 76.117 39.4348C77.2495 36.7006 77.5458 33.692 76.9684 30.7895C76.3909 27.8869 74.9657 25.2207 72.873 23.1282C70.7803 21.0356 68.1141 19.6106 65.2115 19.0333C62.3089 18.4561 59.3003 18.7526 56.5662 19.8852C53.832 21.0179 51.4952 22.9359 49.8512 25.3967C48.2071 27.8575 47.3297 30.7505 47.3299 33.71C47.3299 34.0738 47.1854 34.4228 46.9281 34.6801C46.6708 34.9374 46.3218 35.082 45.9579 35.082C45.5941 35.082 45.2451 34.9374 44.9878 34.6801C44.7305 34.4228 44.5859 34.0738 44.5859 33.71C44.5857 30.2078 45.6241 26.7842 47.5696 23.8722C49.5152 20.9602 52.2806 18.6905 55.5161 17.3501C58.7516 16.0098 62.3119 15.659 65.7468 16.3421C69.1817 17.0252 72.3369 18.7115 74.8133 21.1879C77.2898 23.6642 78.9763 26.8193 79.6596 30.2541C80.3429 33.689 79.9923 37.2493 78.6522 40.4849C77.312 43.7205 75.0424 46.486 72.1305 48.4317C69.2186 50.3774 65.7951 51.416 62.2929 51.416V51.416Z" fill="white"/>
<path d="M39.8329 71.8339C39.4692 71.8334 39.1205 71.6886 38.8633 71.4315C38.6061 71.1743 38.4614 70.8256 38.4609 70.4619V68.4199C38.4609 68.2422 38.3903 68.0718 38.2646 67.9461C38.139 67.8205 37.9686 67.7499 37.7909 67.7499H35.7499C35.6618 67.7498 35.5746 67.767 35.4932 67.8006C35.4118 67.8342 35.3378 67.8835 35.2755 67.9458C35.2132 68.008 35.1637 68.0819 35.13 68.1633C35.0962 68.2446 35.0789 68.3318 35.0789 68.4199V70.4619C35.0838 70.6451 35.052 70.8275 34.9853 70.9982C34.9186 71.1689 34.8184 71.3245 34.6905 71.4559C34.5627 71.5872 34.4098 71.6916 34.241 71.7629C34.0721 71.8342 33.8907 71.8709 33.7074 71.8709C33.5241 71.8709 33.3427 71.8342 33.1738 71.7629C33.0049 71.6916 32.8521 71.5872 32.7242 71.4559C32.5964 71.3245 32.4961 71.1689 32.4294 70.9982C32.3627 70.8275 32.3309 70.6451 32.3359 70.4619V68.4199C32.3359 68.2422 32.2653 68.0718 32.1396 67.9461C32.014 67.8205 31.8436 67.7499 31.6659 67.7499H29.6239C29.4407 67.7548 29.2583 67.723 29.0876 67.6563C28.9169 67.5896 28.7612 67.4894 28.6299 67.3615C28.4985 67.2337 28.3941 67.0808 28.3229 66.912C28.2516 66.7431 28.2148 66.5617 28.2148 66.3784C28.2148 66.1951 28.2516 66.0137 28.3229 65.8448C28.3941 65.6759 28.4985 65.5231 28.6299 65.3952C28.7612 65.2674 28.9169 65.1672 29.0876 65.1005C29.2583 65.0338 29.4407 65.0019 29.6239 65.0069H31.6659C31.8436 65.0069 32.014 64.9363 32.1396 64.8107C32.2653 64.685 32.3359 64.5146 32.3359 64.3369V52.0859C32.3359 51.9082 32.2653 51.7378 32.1396 51.6121C32.014 51.4865 31.8436 51.4159 31.6659 51.4159H29.6239C29.26 51.4159 28.911 51.2713 28.6537 51.014C28.3964 50.7567 28.2519 50.4078 28.2519 50.0439C28.2519 49.68 28.3964 49.331 28.6537 49.0737C28.911 48.8164 29.26 48.6719 29.6239 48.6719H31.6659C31.7539 48.6719 31.841 48.6546 31.9223 48.6209C32.0036 48.5872 32.0774 48.5379 32.1396 48.4757C32.2019 48.4134 32.2512 48.3396 32.2849 48.2583C32.3186 48.177 32.3359 48.0899 32.3359 48.0019V45.9599C32.3455 45.6026 32.4943 45.2631 32.7504 45.0138C33.0066 44.7644 33.3499 44.6249 33.7074 44.6249C34.0648 44.6249 34.4082 44.7644 34.6643 45.0138C34.9205 45.2631 35.0692 45.6026 35.0789 45.9599V48.0009C35.0789 48.089 35.0962 48.1762 35.13 48.2575C35.1637 48.3389 35.2132 48.4128 35.2755 48.475C35.3378 48.5372 35.4118 48.5866 35.4932 48.6202C35.5746 48.6538 35.6618 48.671 35.7499 48.6709H37.7909C37.9686 48.6709 38.139 48.6003 38.2646 48.4747C38.3903 48.349 38.4609 48.1786 38.4609 48.0009V45.9599C38.4609 45.596 38.6054 45.247 38.8627 44.9897C39.12 44.7324 39.469 44.5879 39.8329 44.5879C40.1968 44.5879 40.5457 44.7324 40.803 44.9897C41.0603 45.247 41.2049 45.596 41.2049 45.9599V48.3789C41.2049 48.5171 41.2477 48.652 41.3273 48.7649C41.407 48.8779 41.5197 48.9635 41.6499 49.0099C42.4004 49.27 43.0842 49.6927 43.6525 50.2477C44.2207 50.8027 44.6594 51.4764 44.9371 52.2206C45.2148 52.9648 45.3247 53.7612 45.259 54.5528C45.1933 55.3444 44.9535 56.1117 44.5569 56.7999C44.4703 56.9496 44.4452 57.127 44.4868 57.2949C44.5284 57.4627 44.6334 57.6079 44.7799 57.6999C45.7764 58.3311 46.5412 59.2686 46.9594 60.3716C47.3776 61.4746 47.4267 62.6835 47.0993 63.8167C46.7718 64.95 46.0855 65.9464 45.1435 66.6564C44.2014 67.3663 43.0545 67.7514 41.8749 67.7539C41.6972 67.7539 41.5268 67.8245 41.4011 67.9501C41.2755 68.0758 41.2049 68.2462 41.2049 68.4239V70.4659C41.2033 70.8289 41.0581 71.1766 40.801 71.4329C40.544 71.6892 40.1959 71.8334 39.8329 71.8339V71.8339ZM35.7499 59.5829C35.6618 59.5828 35.5746 59.6 35.4932 59.6336C35.4118 59.6672 35.3378 59.7165 35.2755 59.7788C35.2132 59.841 35.1637 59.9149 35.13 59.9963C35.0962 60.0776 35.0789 60.1648 35.0789 60.2529V64.3369C35.0789 64.425 35.0962 64.5122 35.13 64.5935C35.1637 64.6749 35.2132 64.7488 35.2755 64.811C35.3378 64.8732 35.4118 64.9226 35.4932 64.9562C35.5746 64.9898 35.6618 65.007 35.7499 65.0069H41.8749C45.4639 65.0069 45.4599 59.5829 41.8749 59.5829H35.7499ZM35.7499 51.4159C35.6618 51.4158 35.5746 51.433 35.4932 51.4666C35.4118 51.5002 35.3378 51.5495 35.2755 51.6118C35.2132 51.674 35.1637 51.7479 35.13 51.8293C35.0962 51.9106 35.0789 51.9978 35.0789 52.0859V56.1689C35.0789 56.257 35.0962 56.3442 35.13 56.4255C35.1637 56.5069 35.2132 56.5808 35.2755 56.643C35.3378 56.7052 35.4118 56.7546 35.4932 56.7882C35.5746 56.8218 35.6618 56.839 35.7499 56.8389H39.8329C43.4229 56.8389 43.4179 51.4159 39.8329 51.4159H35.7499Z" fill="white"/>
<path d="M60.9192 43.9189C60.8962 43.8189 61.0322 43.1679 60.4482 42.9859C59.6543 42.746 58.9249 42.3297 58.3147 41.7681C57.7044 41.2065 57.2291 40.5142 56.9242 39.7429C56.7958 39.4026 56.8079 39.0253 56.9577 38.6939C57.1076 38.3626 57.3829 38.1043 57.7232 37.9759C58.0635 37.8475 58.4408 37.8596 58.7722 38.0094C59.1036 38.1593 59.3618 38.4346 59.4902 38.7749C59.7285 39.298 60.1185 39.7375 60.6095 40.0363C61.1006 40.3352 61.6701 40.4796 62.2442 40.4509C64.8132 40.4509 67.1022 37.0759 61.7882 34.9859C54.9282 32.2859 55.8882 26.1399 60.4732 24.5189C61.0662 24.3079 60.8912 23.6479 60.9192 23.5009C60.9192 23.137 61.0637 22.7881 61.321 22.5308C61.5783 22.2735 61.9273 22.1289 62.2912 22.1289C62.6551 22.1289 63.004 22.2735 63.2613 22.5308C63.5186 22.7881 63.6632 23.137 63.6632 23.5009C63.6862 23.6009 63.5502 24.2519 64.1342 24.4339C64.928 24.6737 65.6573 25.0899 66.2675 25.6513C66.8778 26.2127 67.3532 26.9048 67.6582 27.6759C67.7868 28.0163 67.775 28.3939 67.6252 28.7255C67.4755 29.0572 67.2001 29.3158 66.8597 29.4444C66.5193 29.573 66.1417 29.5612 65.8101 29.4114C65.4784 29.2617 65.2198 28.9863 65.0912 28.6459C64.1492 26.1459 59.5792 26.4699 59.5792 29.4629C59.5792 32.6629 67.7462 32.5229 67.7462 37.9569C67.7371 39.0588 67.3807 40.1298 66.7277 41.0174C66.0747 41.905 65.1584 42.5641 64.1092 42.9009C63.5152 43.1109 63.6912 43.7719 63.6632 43.9189C63.6632 44.2828 63.5186 44.6318 63.2613 44.8891C63.004 45.1464 62.6551 45.2909 62.2912 45.2909C61.9273 45.2909 61.5783 45.1464 61.321 44.8891C61.0637 44.6318 60.9192 44.2828 60.9192 43.9189V43.9189Z" fill="white"/>
<path d="M58.1086 76.2394C69.1646 75.4394 77.9146 64.8784 77.2146 53.1884C77.2028 52.8312 77.331 52.4836 77.5716 52.2195C77.8123 51.9553 78.1466 51.7955 78.5033 51.774C78.86 51.7525 79.211 51.871 79.4817 52.1043C79.7523 52.3377 79.9213 52.6674 79.9526 53.0234C80.7526 66.4064 71.0456 78.0484 58.3076 78.9764C57.9446 79.0028 57.586 78.8839 57.3107 78.646C57.0354 78.408 56.8659 78.0704 56.8396 77.7074C56.8132 77.3445 56.932 76.9859 57.17 76.7106C57.408 76.4353 57.7456 76.2658 58.1086 76.2394V76.2394Z" fill="white"/>
<path d="M17.0281 37.6526C17.6374 31.7085 20.4243 26.1999 24.8521 22.1876C27.2873 19.9586 30.1637 18.266 33.2948 17.2195C36.4259 16.173 39.7419 15.7959 43.0281 16.1126C43.3848 16.154 43.711 16.3335 43.9369 16.6128C44.1627 16.892 44.27 17.2486 44.2358 17.606C44.2017 17.9635 44.0287 18.2933 43.7541 18.5247C43.4795 18.7561 43.1252 18.8706 42.7671 18.8436C37.1853 18.329 31.6274 20.0501 27.3134 23.6291C22.9994 27.2082 20.2818 32.3528 19.7571 37.9336C19.713 38.29 19.5311 38.6148 19.2502 38.8385C18.9694 39.0622 18.6121 39.1669 18.2549 39.1301C17.8978 39.0933 17.5693 38.918 17.3399 38.6418C17.1105 38.3656 16.9986 38.0105 17.0281 37.6526V37.6526Z" fill="white"/>
</g>
<defs>
<linearGradient id="paint0_linear_2158_51322" x1="2.81642" y1="37.4857" x2="99.8475" y2="39.0704" gradientUnits="userSpaceOnUse">
<stop stop-color="#6128E3"/>
<stop offset="1" stop-color="#FFB92F"/>
</linearGradient>
<clipPath id="clip0_2158_51322">
<rect width="64" height="64" fill="white" transform="translate(16 16)"/>
</clipPath>
</defs>
</svg>
