<svg width="95" height="95" viewBox="0 0 95 95" fill="none" xmlns="http://www.w3.org/2000/svg">
<rect width="95" height="95" rx="47.5" fill="#4CAF50"/>
<g clip-path="url(#clip0_2158_51308)">
<path d="M69.481 40H79C79.553 40 80 39.552 80 39V27C80 26.448 79.553 26 79 26H67C66.447 26 66 26.448 66 27V28.233L52.777 21.356L55.843 16.537C56.039 16.229 56.051 15.839 55.876 15.518C55.701 15.199 55.365 15 55 15H41C40.635 15 40.299 15.199 40.123 15.519C39.948 15.839 39.96 16.229 40.156 16.538L43.266 21.425L30.492 28.344C29.038 26.323 26.673 25 24 25C19.589 25 16 28.589 16 33C16 37.411 19.589 41 24 41C25.247 41 26.423 40.705 27.476 40.194L31.442 46.311L26.859 54.138L24.393 53.081C24.143 52.973 23.856 52.973 23.606 53.081L16.606 56.081C16.238 56.238 16 56.6 16 57V65C16 65.4 16.238 65.762 16.606 65.919L23.606 68.919C23.731 68.973 23.866 69 24 69C24.134 69 24.269 68.973 24.394 68.919L31.394 65.919C31.74 65.771 31.964 65.44 31.99 65.068L39.494 67.877C39.188 68.524 39 69.238 39 70C39 72.444 40.763 74.484 43.084 74.916C43.516 77.237 45.556 79 48 79C50.444 79 52.484 77.237 52.916 74.916C55.237 74.484 57 72.444 57 70C57 69.313 56.849 68.665 56.597 68.068L65.712 64.896L65.069 68.838C65.007 69.216 65.168 69.596 65.48 69.817C65.793 70.037 66.207 70.06 66.54 69.875L71 67.41L75.461 69.875C75.611 69.958 75.778 70 75.944 70C76.146 70 76.348 69.938 76.52 69.817C76.832 69.596 76.993 69.216 76.931 68.838L76.068 63.547L79.715 59.809C79.977 59.541 80.067 59.149 79.947 58.793C79.827 58.437 79.52 58.178 79.15 58.122L74.149 57.358L71.904 52.574C71.74 52.224 71.388 52 71 52C70.612 52 70.26 52.224 70.095 52.575L68.658 55.636L64.297 47.674L69.481 40ZM63.217 45.701L60.732 41.164L66 38.154V39C66 39.552 66.447 40 67 40H67.068L63.217 45.701ZM51.737 62.694C51.032 61.898 50.08 61.33 49 61.109V49.603L57.171 54.649L51.737 62.694ZM44.375 62.582L38.663 53.773L47 49.01V61.109C45.974 61.319 45.069 61.847 44.375 62.582V62.582ZM47 27.292V46.018L37.403 40.091L45.905 25.571L47 27.292ZM49.996 25.726L58.033 40.401L49 45.563V27.292L49.996 25.726ZM45.602 47.505L37.574 52.092L33.792 46.259L36.392 41.818L45.602 47.505ZM49.517 47.572L58.995 42.157L61.957 47.566L58.292 52.992L49.517 47.572ZM68 28H78V38H68V28ZM66 30.487V35.85L59.771 39.409L51.222 23.8L51.7 23.049L66 30.487ZM53.179 17L48 25.137L42.821 17H53.179ZM44.343 23.116L44.698 23.673L35.7 39.039L31.275 36.307C31.737 35.297 32 34.18 32 33C32 31.977 31.8 31.001 31.448 30.1L44.343 23.116ZM18 33C18 29.691 20.691 27 24 27C27.309 27 30 29.691 30 33C30 36.309 27.309 39 24 39C20.691 39 18 36.309 18 33ZM29.155 39.108C29.546 38.777 29.905 38.41 30.227 38.011L34.689 40.766L32.573 44.38L29.155 39.108ZM32.661 48.19L35.835 53.086L30.936 55.885L28.713 54.932L32.661 48.19ZM30 64.341L24 66.912L18 64.341V57.659L24 55.088L30 57.659V64.341ZM32 62.936V57.58L36.925 54.766L43.244 64.511C43.185 64.699 43.121 64.886 43.084 65.083C42.201 65.247 41.401 65.646 40.746 66.21L32 62.936ZM52 73C51.447 73 51 73.448 51 74C51 75.654 49.654 77 48 77C46.346 77 45 75.654 45 74C45 73.448 44.553 73 44 73C42.346 73 41 71.654 41 70C41 68.346 42.346 67 44 67C44.553 67 45 66.552 45 66C45 64.346 46.346 63 48 63C49.654 63 51 64.346 51 66C51 66.552 51.447 67 52 67C53.654 67 55 68.346 55 70C55 71.654 53.654 73 52 73ZM52.916 65.084C52.89 64.947 52.841 64.819 52.805 64.686L58.875 55.701L62.814 58.133C62.46 58.201 62.168 58.45 62.052 58.794C61.933 59.149 62.023 59.542 62.284 59.81L65.316 62.917L55.408 66.365C54.725 65.724 53.873 65.262 52.916 65.084V65.084ZM71 55.354L72.566 58.692C72.708 58.994 72.991 59.205 73.32 59.256L76.924 59.806L74.283 62.513C74.061 62.74 73.961 63.059 74.012 63.372L74.625 67.128L71.482 65.392C71.332 65.309 71.166 65.267 70.999 65.267C70.832 65.267 70.666 65.309 70.516 65.392L67.373 67.128L67.986 63.372C68.037 63.059 67.936 62.74 67.715 62.513L65.074 59.806L68.678 59.256C69.007 59.205 69.29 58.994 69.432 58.692L71 55.354ZM67.362 57.433L65.858 57.663L59.995 54.042L63.038 49.538L67.362 57.433Z" fill="white"/>
</g>
<defs>
<clipPath id="clip0_2158_51308">
<rect width="64" height="64" fill="white" transform="translate(16 15)"/>
</clipPath>
</defs>
</svg>
