<svg width="95" height="95" viewBox="0 0 95 95" fill="none" xmlns="http://www.w3.org/2000/svg">
<rect width="95" height="95" rx="47.5" fill="#6128E3"/>
<path d="M55.4876 47.8806L54.7713 47.4807C54.784 47.3196 54.7903 47.1599 54.7903 47.0003C54.7903 46.8426 54.7838 46.6826 54.7708 46.5203L55.4876 46.1199C55.6817 46.0114 55.8341 45.8413 55.9207 45.6365C56.0074 45.4317 56.0233 45.2039 55.9661 44.989C55.5872 43.5755 54.8251 42.2942 53.7639 41.2864C53.6092 41.1393 53.4115 41.0455 53.1997 41.0188C52.9879 40.9921 52.7731 41.0339 52.5867 41.138L51.8723 41.5833C51.5731 41.3812 51.2581 41.2034 50.9304 41.0515V40.2576C50.9305 40.0374 50.8578 39.8233 50.7236 39.6487C50.5895 39.474 50.4015 39.3486 50.1887 39.2918C48.7555 38.9016 47.2439 38.9028 45.8113 39.2952C45.5987 39.3522 45.4108 39.4777 45.2768 39.6523C45.1428 39.8269 45.0701 40.0409 45.0701 40.261V41.0515C44.7566 41.1948 44.4564 41.3655 44.1731 41.5618L43.4167 41.1399C43.2302 41.0363 43.0155 40.9949 42.8039 41.0217C42.5922 41.0486 42.3947 41.1424 42.24 41.2893C41.178 42.2957 40.4146 43.5758 40.0339 44.9885C39.9765 45.2035 39.9924 45.4314 40.0791 45.6363C40.1657 45.8412 40.3182 46.0114 40.5124 46.1199L41.2297 46.5203C41.2165 46.6829 41.21 46.8429 41.2102 47.0003C41.2102 47.1599 41.2165 47.3191 41.2292 47.4803L40.5124 47.8807C40.3182 47.9892 40.1657 48.1593 40.079 48.3642C39.9923 48.5691 39.9765 48.7971 40.0339 49.012C40.4132 50.4252 41.1752 51.7063 42.236 52.7142C42.3906 52.8613 42.5883 52.9551 42.8 52.9818C43.0118 53.0085 43.2265 52.9667 43.4128 52.8626L44.1281 52.4173C44.4275 52.6193 44.7424 52.7971 45.07 52.949V53.743C45.07 53.9632 45.1427 54.1773 45.2768 54.3519C45.4109 54.5266 45.599 54.652 45.8117 54.7088C46.5262 54.9014 47.2628 54.9994 48.0027 55.0003C48.0369 55.0003 48.0711 55.0003 48.1053 54.9998C48.8095 54.9888 49.5096 54.8899 50.1893 54.7053C50.4019 54.6484 50.5898 54.5228 50.7238 54.3482C50.8578 54.1736 50.9305 53.9596 50.9305 53.7395V52.949C51.244 52.8057 51.5442 52.635 51.8275 52.4388L52.5839 52.8606C52.7703 52.9644 52.985 53.006 53.1967 52.9792C53.4083 52.9524 53.6059 52.8587 53.7606 52.7117C54.8226 51.7051 55.586 50.4248 55.9667 49.012C56.0241 48.797 56.0082 48.569 55.9214 48.3641C55.8346 48.1591 55.682 47.989 55.4876 47.8806V47.8806ZM52.7073 46.1668C52.818 46.7169 52.818 47.2836 52.7073 47.8338C52.6678 48.0402 52.6943 48.2538 52.7831 48.4443C52.8718 48.6347 53.0184 48.7924 53.2019 48.8948L53.7874 49.2219C53.5607 49.7684 53.2534 50.2778 52.8758 50.7332L52.8035 50.6926C52.4885 50.5147 52.1305 50.4268 51.7689 50.4387C51.4073 50.4506 51.0559 50.5618 50.7532 50.76C50.5275 50.912 50.2894 51.0447 50.0413 51.1565C49.7086 51.309 49.4269 51.5542 49.2299 51.8626C49.0329 52.1711 48.9289 52.5298 48.9305 52.8958V52.9294C48.649 52.9725 48.365 52.9959 48.0804 52.9998C47.7424 53.0023 47.4046 52.9793 47.0701 52.9309V52.8958C47.0715 52.5299 46.9675 52.1713 46.7707 51.8629C46.5738 51.5544 46.2923 51.3092 45.9597 51.1565C45.7113 51.0448 45.473 50.912 45.2473 50.7595C44.9449 50.5615 44.5937 50.4504 44.2324 50.4385C43.871 50.4267 43.5134 50.5144 43.1985 50.6921L43.1214 50.7351C42.7447 50.2788 42.4383 49.7687 42.2122 49.2219L42.7986 48.8948C42.9818 48.7924 43.1282 48.635 43.217 48.4449C43.3057 48.2547 43.3324 48.0414 43.2933 47.8353C43.1826 47.2841 43.1826 46.7165 43.2933 46.1654C43.3325 45.9592 43.3058 45.7459 43.217 45.5557C43.1282 45.3656 42.9819 45.2082 42.7987 45.1058L42.2132 44.7786C42.44 44.2323 42.7473 43.7229 43.1248 43.2674L43.1971 43.3079C43.512 43.4862 43.87 43.5743 44.2317 43.5624C44.5934 43.5505 44.9449 43.4391 45.2474 43.2405C45.4732 43.0884 45.7115 42.9558 45.9598 42.8441C46.2923 42.6913 46.5738 42.4461 46.7707 42.1377C46.9676 41.8293 47.0716 41.4707 47.0702 41.1048V41.0711C47.6867 40.977 48.3139 40.9765 48.9305 41.0696V41.1048C48.929 41.4707 49.0329 41.8293 49.2298 42.1378C49.4267 42.4462 49.7083 42.6914 50.0409 42.844C50.2893 42.9557 50.5276 43.0885 50.7533 43.241C51.0558 43.4392 51.407 43.5503 51.7685 43.5621C52.1299 43.574 52.4877 43.4862 52.8026 43.3084L52.8792 43.2654C53.2556 43.7217 53.5619 44.2315 53.7879 44.7781L53.2015 45.1057C53.0181 45.2083 52.8717 45.3659 52.783 45.5564C52.6942 45.7469 52.6678 45.9604 52.7073 46.1668V46.1668Z" fill="white"/>
<path d="M48 43.5C47.3078 43.5 46.6311 43.7053 46.0555 44.0899C45.4799 44.4744 45.0313 45.0211 44.7664 45.6606C44.5015 46.3001 44.4322 47.0039 44.5673 47.6828C44.7023 48.3617 45.0356 48.9854 45.5251 49.4749C46.0146 49.9644 46.6383 50.2977 47.3172 50.4327C47.9961 50.5678 48.6999 50.4985 49.3394 50.2336C49.9789 49.9687 50.5256 49.5201 50.9101 48.9445C51.2947 48.3689 51.5 47.6922 51.5 47C51.4989 46.0721 51.1298 45.1825 50.4736 44.5264C49.8175 43.8702 48.9279 43.5011 48 43.5V43.5ZM48 48.5C47.7033 48.5 47.4133 48.412 47.1666 48.2472C46.92 48.0824 46.7277 47.8481 46.6142 47.574C46.5007 47.2999 46.4709 46.9983 46.5288 46.7074C46.5867 46.4164 46.7296 46.1491 46.9393 45.9393C47.1491 45.7296 47.4164 45.5867 47.7074 45.5288C47.9983 45.4709 48.2999 45.5007 48.574 45.6142C48.8481 45.7277 49.0824 45.92 49.2472 46.1666C49.412 46.4133 49.5 46.7033 49.5 47C49.4996 47.3977 49.3414 47.779 49.0602 48.0602C48.779 48.3414 48.3977 48.4996 48 48.5Z" fill="white"/>
<path d="M38 36C37.2046 36.0009 36.4421 36.3172 35.8796 36.8796C35.3172 37.4421 35.0009 38.2046 35 39V56H34C33.7348 56 33.4804 56.1054 33.2929 56.2929C33.1054 56.4804 33 56.7348 33 57V59C33.0009 59.7954 33.3172 60.5579 33.8796 61.1204C34.4421 61.6828 35.2046 61.9991 36 62H60C60.7954 61.9991 61.5579 61.6828 62.1204 61.1204C62.6828 60.5579 62.9991 59.7954 63 59V57C63 56.7348 62.8946 56.4804 62.7071 56.2929C62.5196 56.1054 62.2652 56 62 56H61V39C60.9991 38.2046 60.6828 37.4421 60.1204 36.8796C59.5579 36.3172 58.7954 36.0009 58 36H38ZM61 59C60.9997 59.2651 60.8942 59.5193 60.7067 59.7067C60.5193 59.8942 60.2651 59.9997 60 60H36C35.7349 59.9997 35.4807 59.8942 35.2933 59.7067C35.1058 59.5193 35.0003 59.2651 35 59V58H61V59ZM59 39V56H37V39C37.0003 38.7349 37.1058 38.4807 37.2933 38.2933C37.4807 38.1058 37.7349 38.0003 38 38H58C58.2651 38.0003 58.5193 38.1058 58.7067 38.2933C58.8942 38.4807 58.9997 38.7349 59 39Z" fill="white"/>
<path d="M18 71H20V78C20 78.2652 20.1053 78.5195 20.2929 78.7071C20.4804 78.8946 20.7348 79 21 79H33C33.2652 79 33.5195 78.8946 33.7071 78.7071C33.8946 78.5195 34 78.2652 34 78V71H36C36.1977 71 36.3911 70.9413 36.5555 70.8315C36.7199 70.7216 36.8481 70.5654 36.9238 70.3827C36.9995 70.2 37.0193 69.9989 36.9807 69.8049C36.9421 69.611 36.8468 69.4328 36.707 69.293L27.707 60.293C27.6141 60.2001 27.5039 60.1264 27.3826 60.0761C27.2613 60.0259 27.1313 60 26.9999 60C26.8686 60 26.7386 60.0259 26.6173 60.0761C26.496 60.1264 26.3857 60.2001 26.2929 60.293L17.2929 69.293C17.1531 69.4328 17.0578 69.611 17.0192 69.805C16.9806 69.9989 17.0004 70.2 17.0761 70.3827C17.1518 70.5654 17.28 70.7216 17.4444 70.8315C17.6089 70.9413 17.8022 71 18 71V71ZM28 77H26V74H28V77ZM27 62.414L33.5859 69H33C32.7348 69 32.4804 69.1053 32.2929 69.2929C32.1053 69.4804 32 69.7348 32 70V77H30V73C30 72.7348 29.8946 72.4804 29.7071 72.2929C29.5195 72.1053 29.2652 72 29 72H25C24.7348 72 24.4804 72.1053 24.2929 72.2929C24.1053 72.4804 24 72.7348 24 73V77H22V70C22 69.7348 21.8946 69.4804 21.7071 69.2929C21.5195 69.1053 21.2652 69 21 69H20.414L27 62.414Z" fill="white"/>
<path d="M64 40H78C78.2652 40 78.5196 39.8946 78.7071 39.7071C78.8946 39.5196 79 39.2652 79 39V19C78.9995 18.4697 78.7886 17.9613 78.4136 17.5864C78.0387 17.2114 77.5303 17.0005 77 17H65C64.4697 17.0005 63.9613 17.2114 63.5864 17.5864C63.2114 17.9613 63.0005 18.4697 63 19V39C63 39.2652 63.1054 39.5196 63.2929 39.7071C63.4804 39.8946 63.7348 40 64 40ZM72 35V38H70V35H72ZM65 19H77V38H74V35H75V33H67V35H68V38H65V19Z" fill="white"/>
<path d="M66 21H68V23H66V21Z" fill="white"/>
<path d="M70 21H72V23H70V21Z" fill="white"/>
<path d="M74 21H76V23H74V21Z" fill="white"/>
<path d="M66 25H68V27H66V25Z" fill="white"/>
<path d="M70 25H72V27H70V25Z" fill="white"/>
<path d="M74 25H76V27H74V25Z" fill="white"/>
<path d="M66 29H68V31H66V29Z" fill="white"/>
<path d="M70 29H72V31H70V29Z" fill="white"/>
<path d="M74 29H76V31H74V29Z" fill="white"/>
<path d="M23 41C23.0045 37.0231 24.5863 33.2104 27.3984 30.3983C30.2104 27.5862 34.0231 26.0044 38 26H52V28C52 28.1769 52.047 28.3507 52.1361 28.5036C52.2252 28.6565 52.3534 28.783 52.5074 28.8702C52.6614 28.9574 52.8358 29.0021 53.0127 28.9999C53.1897 28.9976 53.3629 28.9485 53.5146 28.8574L58.5146 25.8574C58.6627 25.7685 58.7852 25.6428 58.8703 25.4926C58.9553 25.3423 59 25.1726 59 25C59 24.8273 58.9553 24.6576 58.8703 24.5073C58.7852 24.3571 58.6627 24.2314 58.5146 24.1425L53.5146 21.1425C53.3629 21.0515 53.1897 21.0023 53.0128 21.0001C52.8358 20.9978 52.6614 21.0426 52.5074 21.1298C52.3534 21.217 52.2253 21.3434 52.1362 21.4963C52.047 21.6492 52 21.823 52 22V24H38C33.4929 24.005 29.1718 25.7977 25.9847 28.9847C22.7977 32.1717 21.005 36.4928 21 41V57H23V41ZM54 23.7661L56.0561 25L54 26.2338V23.7661Z" fill="white"/>
<path d="M75 56V46H73V56C72.9955 59.9769 71.4137 63.7896 68.6017 66.6016C65.7896 69.4137 61.9769 70.9955 58 71H48V69C48 68.823 47.953 68.6492 47.8639 68.4964C47.7747 68.3435 47.6466 68.217 47.4926 68.1298C47.3386 68.0426 47.1642 67.9979 46.9873 68.0001C46.8103 68.0024 46.6371 68.0515 46.4854 68.1426L41.4854 71.1426C41.3373 71.2314 41.2148 71.3571 41.1298 71.5074C41.0447 71.6576 41 71.8273 41 72C41 72.1727 41.0447 72.3424 41.1298 72.4926C41.2148 72.6429 41.3373 72.7686 41.4854 72.8574L46.4854 75.8574C46.6371 75.9485 46.8103 75.9976 46.9873 75.9999C47.1642 76.0021 47.3386 75.9574 47.4926 75.8702C47.6466 75.783 47.7747 75.6565 47.8639 75.5036C47.953 75.3508 48 75.177 48 75V73H58C62.5072 72.995 66.8283 71.2023 70.0153 68.0153C73.2023 64.8282 74.995 60.5071 75 56V56ZM46 73.2339L43.9439 72L46 70.7661V73.2339Z" fill="white"/>
</svg>
