<svg width="95" height="95" viewBox="0 0 95 95" fill="none" xmlns="http://www.w3.org/2000/svg">
<rect width="95" height="95" rx="47.5" fill="#FFB92F"/>
<g clip-path="url(#clip0_2159_51379)">
<path d="M33.0523 36.1313C33.2354 36.6902 33.837 36.9965 34.3981 36.8129L41.1314 34.6077C41.8039 34.3876 42.0805 33.5825 41.6822 32.9953L34.9489 23.0672C34.5263 22.4442 33.6065 22.4433 33.1833 23.0672L26.4499 32.9953C26.2042 33.3577 26.2042 33.8408 26.4499 34.2032L33.1833 44.1313C33.6058 44.7542 34.5257 44.7552 34.9489 44.1313L37.7062 40.0657C38.0367 39.5782 37.9097 38.9149 37.4221 38.5842C36.9346 38.2538 36.2713 38.3808 35.9406 38.8684L34.0661 41.6322L28.6181 33.5993L34.0661 25.5664L39.1219 33.021L33.7341 34.7856C33.1743 34.9689 32.869 35.5714 33.0523 36.1313V36.1313Z" fill="white"/>
<path d="M80 34.3326C80 24.3339 71.8653 16.1992 61.8667 16.1992C58.0735 16.1992 54.4405 17.3583 51.3603 19.5515C50.8803 19.8932 50.7684 20.5592 51.11 21.039C51.4516 21.5188 52.1173 21.631 52.5975 21.2892C55.3143 19.355 58.5195 18.3326 61.8667 18.3326C70.6891 18.3326 77.8667 25.5102 77.8667 34.3326C77.8667 43.155 70.6891 50.3326 61.8667 50.3326C56.9767 50.3326 52.3395 48.0718 49.3141 44.252C51.2475 41.3019 52.2667 37.8896 52.2667 34.3326C52.2667 24.3339 44.132 16.1992 34.1333 16.1992C24.1347 16.1992 16 24.3339 16 34.3326C16 44.3312 24.1347 52.4659 34.1333 52.4659C36.8464 52.4659 39.4561 51.881 41.89 50.7276C42.4224 50.4752 42.6493 49.8392 42.3972 49.307C42.1448 48.7747 41.5091 48.5472 40.9765 48.7998C38.8303 49.8168 36.5279 50.3326 34.1333 50.3326C25.3109 50.3326 18.1333 43.155 18.1333 34.3326C18.1333 25.5102 25.3109 18.3326 34.1333 18.3326C42.9557 18.3326 50.1333 25.5102 50.1333 34.3326C50.1333 37.6956 49.1021 40.9116 47.1516 43.6356C46.8697 44.0047 46.8595 44.5238 47.1332 44.9056C50.6493 49.7779 56.3179 52.5966 62.2879 52.4606C63.4087 54.682 64 57.159 64 59.6659C64 68.4883 56.8224 75.6659 48 75.6659C38.9949 75.6659 31.6817 68.1803 32.0108 59.0731C32.032 58.4844 31.5719 57.9899 30.9832 57.9687C30.3928 57.9503 29.9001 58.4075 29.8788 58.9963C29.5072 69.2936 37.7728 77.7992 48 77.7992C57.9987 77.7992 66.1333 69.6646 66.1333 59.6659C66.1333 57.1106 65.5905 54.5822 64.5567 52.266C73.2843 50.9626 80 43.4174 80 34.3326V34.3326Z" fill="white"/>
<path d="M62.9877 25.8483C62.426 25.6716 61.8268 25.983 61.6496 26.5448L59.8668 32.199H56.0003C55.4112 32.199 54.9336 32.6766 54.9336 33.2656C54.9336 33.8547 55.4112 34.3323 56.0003 34.3323H59.1941L56.9831 41.3448C56.7669 42.0295 57.2776 42.7323 58.0003 42.7323H67.7336C68.3227 42.7323 68.8003 42.2547 68.8003 41.6656C68.8003 41.0766 68.3227 40.599 67.7336 40.599H59.4551L61.4311 34.3323H64.0003C64.5893 34.3323 65.0669 33.8547 65.0669 33.2656C65.0669 32.6766 64.5893 32.199 64.0003 32.199H62.1037L63.6843 27.1864C63.8613 26.6246 63.5495 26.0255 62.9877 25.8483Z" fill="white"/>
<path d="M52.3536 53.6715L47.9982 57.5686L43.6427 53.6715C42.9571 53.0578 41.8648 53.546 41.8648 54.4664V63.7998H38.5315C37.9424 63.7998 37.4648 64.2774 37.4648 64.8664C37.4648 65.4555 37.9424 65.9331 38.5315 65.9331H42.9315C43.5206 65.9331 43.9982 65.4555 43.9982 64.8664V56.8522L47.287 59.7947C47.6919 60.157 48.3044 60.157 48.7094 59.7947L51.9982 56.8522V64.8664C51.9982 65.4555 52.4758 65.9331 53.0648 65.9331H57.4648C58.0539 65.9331 58.5315 65.4555 58.5315 64.8664C58.5315 64.2774 58.0539 63.7998 57.4648 63.7998H54.1315V54.4664C54.1315 53.5456 53.0387 53.0579 52.3536 53.6715Z" fill="white"/>
</g>
<defs>
<clipPath id="clip0_2159_51379">
<rect width="64" height="64" fill="white" transform="translate(16 15)"/>
</clipPath>
</defs>
</svg>
