<svg width="95" height="95" viewBox="0 0 95 95" fill="none" xmlns="http://www.w3.org/2000/svg">
<rect width="95" height="95" rx="47.5" fill="#3B354A"/>
<g clip-path="url(#clip0_2159_51411)">
<path d="M64 47C55.178 47 48 54.178 48 63C48 71.822 55.178 79 64 79C72.822 79 80 71.822 80 63C80 54.178 72.822 47 64 47ZM64 77C56.28 77 50 70.72 50 63C50 55.28 56.28 49 64 49C71.72 49 78 55.28 78 63C78 70.72 71.72 77 64 77Z" fill="white"/>
<path d="M48 31C48 22.178 40.822 15 32 15C23.178 15 16 22.178 16 31C16 39.822 23.178 47 32 47C40.822 47 48 39.822 48 31ZM32 45C24.28 45 18 38.72 18 31C18 23.28 24.28 17 32 17C39.72 17 46 23.28 46 31C46 38.72 39.72 45 32 45Z" fill="white"/>
<path d="M33 59V50.414L35.293 52.707L36.707 51.293L32.707 47.293C32.512 47.098 32.256 47 32 47C31.744 47 31.488 47.098 31.293 47.293L27.293 51.293L28.707 52.707L31 50.414V59C31 61.757 33.243 64 36 64H46V62H36C34.346 62 33 60.654 33 59Z" fill="white"/>
<path d="M32 24C33.654 24 35 25.346 35 27H37C37 24.586 35.279 22.566 33 22.101V20H31V22.101C28.721 22.566 27 24.586 27 27C27 29.757 29.243 32 32 32C33.654 32 35 33.346 35 35C35 36.654 33.654 38 32 38C30.346 38 29 36.654 29 35H27C27 37.414 28.721 39.434 31 39.899V42H33V39.899C35.279 39.434 37 37.415 37 35C37 32.243 34.757 30 32 30C30.346 30 29 28.654 29 27C29 25.346 30.346 24 32 24Z" fill="white"/>
<path d="M68.707 42.707L67.293 41.293L65 43.586V35C65 32.243 62.757 30 60 30H50V32H60C61.654 32 63 33.346 63 35V43.586L60.707 41.293L59.293 42.707L63.293 46.707C63.488 46.902 63.744 47 64 47C64.256 47 64.512 46.902 64.707 46.707L68.707 42.707Z" fill="white"/>
<path d="M69.402 62.642C70.379 61.729 71 60.44 71 59C71 56.586 69.279 54.566 67 54.101V52H65V54H63V52H61V54H57V56H59V63V70H57V72H61V74H63V72H65V74H67V72C69.757 72 72 69.757 72 67C72 65.118 70.943 63.495 69.402 62.642ZM61 56H66C67.654 56 69 57.346 69 59C69 60.654 67.654 62 66 62H61V56ZM67 70H61V64H66H67C68.654 64 70 65.346 70 67C70 68.654 68.654 70 67 70Z" fill="white"/>
</g>
<defs>
<clipPath id="clip0_2159_51411">
<rect width="64" height="64" fill="white" transform="translate(16 15)"/>
</clipPath>
</defs>
</svg>
