<svg width="95" height="95" viewBox="0 0 95 95" fill="none" xmlns="http://www.w3.org/2000/svg">
<rect width="95" height="95" rx="47.5" fill="#4CAF50"/>
<g clip-path="url(#clip0_2156_51222)">
<path d="M25.3389 36.3438C23.1303 36.3438 21.3398 38.1342 21.3398 40.3428V59.0051C21.3398 61.2137 23.1303 63.0041 25.3389 63.0041C27.5475 63.0041 29.338 61.2137 29.338 59.0051V40.3428C29.338 38.1342 27.5475 36.3438 25.3389 36.3438Z" fill="white"/>
<path d="M70.6631 36.3438C68.4545 36.3438 66.6641 38.1342 66.6641 40.3428V59.0051C66.6641 61.2137 68.4545 63.0041 70.6631 63.0041C72.8717 63.0041 74.6622 61.2137 74.6622 59.0051V40.3428C74.6622 38.1342 72.8719 36.3438 70.6631 36.3438Z" fill="white"/>
<path d="M62.6633 36.3438H33.337C32.6008 36.3438 32.0039 36.9406 32.0039 37.6768V59.0051C32.0033 62.1728 34.2323 64.9033 37.336 65.5369V75.0013C37.336 77.2099 39.1265 79.0004 41.3351 79.0004C43.5437 79.0004 45.3342 77.2099 45.3342 75.0013V65.6701H50.6663V75.0013C50.6663 77.2099 52.4567 79.0004 54.6653 79.0004C56.874 79.0004 58.6644 77.2099 58.6644 75.0013V65.5369C61.7682 64.9033 63.9972 62.1728 63.9965 59.0051V37.6768C63.9964 36.9406 63.3995 36.3438 62.6633 36.3438Z" fill="white"/>
<path d="M57.6914 20.5391L60.9413 17.2918C61.4708 16.7803 61.4854 15.9365 60.9741 15.4069C60.4625 14.8774 59.6187 14.8628 59.0891 15.3742C59.078 15.3849 59.0671 15.3958 59.0564 15.4069L55.2706 19.1928C50.634 17.1786 45.3693 17.1786 40.7327 19.1928L36.9469 15.4043C36.4174 14.8928 35.5735 14.9075 35.062 15.437C34.5631 15.9537 34.5631 16.7726 35.062 17.2891L38.3092 20.539C34.3505 23.1583 31.9796 27.5974 32.0041 32.3442C32.0041 33.0804 32.601 33.6772 33.3372 33.6772H62.6637C63.3999 33.6772 63.9967 33.0804 63.9967 32.3442C64.0211 27.5975 61.6501 23.1585 57.6914 20.5391Z" fill="white"/>
<path d="M41.3331 28.3458C42.0693 28.3458 42.6661 27.749 42.6661 27.0128C42.6661 26.2765 42.0693 25.6797 41.3331 25.6797C40.5968 25.6797 40 26.2765 40 27.0128C40 27.749 40.5968 28.3458 41.3331 28.3458Z" fill="#4CAF50"/>
<path d="M54.6651 28.3458C55.4013 28.3458 55.9982 27.749 55.9982 27.0128C55.9982 26.2765 55.4013 25.6797 54.6651 25.6797C53.9289 25.6797 53.332 26.2765 53.332 27.0128C53.332 27.749 53.9289 28.3458 54.6651 28.3458Z" fill="#4CAF50"/>
</g>
<defs>
<clipPath id="clip0_2156_51222">
<rect width="64" height="64" fill="white" transform="translate(16 15)"/>
</clipPath>
</defs>
</svg>
