<svg width="95" height="95" viewBox="0 0 95 95" fill="none" xmlns="http://www.w3.org/2000/svg">
<rect width="95" height="95" rx="47.5" fill="url(#paint0_linear_2152_51161)"/>
<g clip-path="url(#clip0_2152_51161)">
<path d="M59.9986 16C56.5866 16.236 52.5987 18.42 50.2747 21.264C48.1547 23.844 46.4107 27.6759 47.0907 31.3999C50.8187 31.5159 54.6707 29.2799 56.9026 26.3879C58.9906 23.696 60.5706 19.888 59.9986 16Z" fill="white"/>
<path d="M73.4822 37.4724C70.2062 33.3645 65.6022 30.9805 61.2542 30.9805C55.5143 30.9805 53.0863 33.7285 49.0983 33.7285C44.9863 33.7285 41.8623 30.9885 36.8984 30.9885C32.0224 30.9885 26.8304 33.9685 23.5385 39.0644C18.9105 46.2404 19.7025 59.7323 27.2024 71.2242C29.8864 75.3362 33.4704 79.9602 38.1584 80.0002C42.3303 80.0402 43.5063 77.3242 49.1583 77.2962C54.8103 77.2642 55.8823 80.0362 60.0462 79.9922C64.7382 79.9562 68.5182 74.8322 71.2022 70.7202C73.1262 67.7723 73.8422 66.2883 75.3341 62.9603C64.4822 58.8283 62.7422 43.3964 73.4822 37.4724Z" fill="white"/>
</g>
<defs>
<linearGradient id="paint0_linear_2152_51161" x1="2.81642" y1="37.4857" x2="99.8475" y2="39.0704" gradientUnits="userSpaceOnUse">
<stop stop-color="#6128E3"/>
<stop offset="1" stop-color="#FFB92F"/>
</linearGradient>
<clipPath id="clip0_2152_51161">
<rect width="64" height="64" fill="white" transform="translate(16 16)"/>
</clipPath>
</defs>
</svg>
