<svg width="95" height="95" viewBox="0 0 95 95" fill="none" xmlns="http://www.w3.org/2000/svg">
<rect width="95" height="95" rx="47.5" fill="#FFB92F"/>
<path d="M64.5 29.375H63.945C63.7012 28.515 63.1848 27.7575 62.4733 27.2165C61.7618 26.6754 60.8938 26.3801 60 26.375H36C35.1062 26.3801 34.2382 26.6754 33.5267 27.2165C32.8152 27.7575 32.2988 28.515 32.055 29.375H31.5C30.406 29.375 29.3568 29.8096 28.5832 30.5832C27.8096 31.3568 27.375 32.406 27.375 33.5V56C27.375 57.094 27.8096 58.1432 28.5832 58.9168C29.3568 59.6904 30.406 60.125 31.5 60.125H42.135L41.085 65.375H39C38.7016 65.375 38.4155 65.4935 38.2045 65.7045C37.9935 65.9155 37.875 66.2016 37.875 66.5C37.875 66.7984 37.9935 67.0845 38.2045 67.2955C38.4155 67.5065 38.7016 67.625 39 67.625H57C57.2984 67.625 57.5845 67.5065 57.7955 67.2955C58.0065 67.0845 58.125 66.7984 58.125 66.5C58.125 66.2016 58.0065 65.9155 57.7955 65.7045C57.5845 65.4935 57.2984 65.375 57 65.375H54.915L53.865 60.125H64.5C65.594 60.125 66.6432 59.6904 67.4168 58.9168C68.1904 58.1432 68.625 57.094 68.625 56V33.5C68.625 32.406 68.1904 31.3568 67.4168 30.5832C66.6432 29.8096 65.594 29.375 64.5 29.375ZM66.375 33.5V51.875H64.125V31.625H64.5C64.9973 31.625 65.4742 31.8225 65.8258 32.1742C66.1775 32.5258 66.375 33.0027 66.375 33.5ZM34.125 30.5C34.125 30.0027 34.3225 29.5258 34.6742 29.1742C35.0258 28.8225 35.5027 28.625 36 28.625H60C60.4973 28.625 60.9742 28.8225 61.3258 29.1742C61.6775 29.5258 61.875 30.0027 61.875 30.5V51.875H34.125V30.5ZM31.5 31.625H31.875V51.875H29.625V33.5C29.625 33.0027 29.8225 32.5258 30.1742 32.1742C30.5258 31.8225 31.0027 31.625 31.5 31.625ZM52.62 65.375H43.38L44.43 60.125H51.57L52.62 65.375ZM66.375 56C66.375 56.4973 66.1775 56.9742 65.8258 57.3258C65.4742 57.6775 64.9973 57.875 64.5 57.875H31.5C31.0027 57.875 30.5258 57.6775 30.1742 57.3258C29.8225 56.9742 29.625 56.4973 29.625 56V54.125H66.375V56ZM55.32 35.375L48.57 31.475C48.3953 31.3792 48.1993 31.3289 48 31.3289C47.8007 31.3289 47.6047 31.3792 47.43 31.475L40.68 35.375C40.5113 35.4759 40.3715 35.6187 40.2743 35.7895C40.177 35.9603 40.1256 36.1534 40.125 36.35V44.15C40.1256 44.3466 40.177 44.5397 40.2743 44.7105C40.3715 44.8813 40.5113 45.0241 40.68 45.125L47.43 49.025C47.6038 49.1236 47.8002 49.1754 48 49.1754C48.1998 49.1754 48.3962 49.1236 48.57 49.025L55.32 45.125C55.4887 45.0241 55.6285 44.8813 55.7257 44.7105C55.823 44.5397 55.8744 44.3466 55.875 44.15V36.35C55.8744 36.1534 55.823 35.9603 55.7257 35.7895C55.6285 35.6187 55.4887 35.4759 55.32 35.375ZM48 33.755L52.5 36.35L48 38.945L43.5 36.35L48 33.755ZM42.375 38.255L46.875 40.85V46.1L42.375 43.505V38.255ZM49.125 46.055V40.895L53.625 38.3V43.505L49.125 46.055Z" fill="#0A021D"/>
</svg>
