<svg width="96" height="96" viewBox="0 0 96 96" fill="none" xmlns="http://www.w3.org/2000/svg">
<rect width="96" height="96" rx="48" fill="#F7F3FF"/>
<path d="M70.7746 18.666H25.228C21.612 18.666 18.668 21.61 18.668 25.226V70.7727C18.668 74.3887 21.612 77.3327 25.228 77.3327H70.7746C74.3906 77.3327 77.3346 74.3887 77.3346 70.7727V25.226C77.3346 21.61 74.3906 18.666 70.7746 18.666V18.666ZM74.668 25.226V26.666H54.26C51.8893 26.666 49.7906 25.1567 49.044 22.906L48.5186 21.3327H70.7746C72.9213 21.3327 74.668 23.0793 74.668 25.226V25.226ZM70.7746 74.666H25.228C23.0813 74.666 21.3346 72.9194 21.3346 70.7727V25.226C21.3346 23.0793 23.0813 21.3327 25.228 21.3327H45.7053L46.5106 23.7487C47.6253 27.09 50.7373 29.3327 54.26 29.3327H74.668V70.7727C74.668 72.9194 72.9213 74.666 70.7746 74.666Z" fill="#6128E3"/>
<path d="M38.6693 26.6667C39.4057 26.6667 40.0026 26.0697 40.0026 25.3333C40.0026 24.597 39.4057 24 38.6693 24C37.9329 24 37.3359 24.597 37.3359 25.3333C37.3359 26.0697 37.9329 26.6667 38.6693 26.6667Z" fill="#6128E3"/>
<path d="M33.3333 26.6667C34.0697 26.6667 34.6667 26.0697 34.6667 25.3333C34.6667 24.597 34.0697 24 33.3333 24C32.597 24 32 24.597 32 25.3333C32 26.0697 32.597 26.6667 33.3333 26.6667Z" fill="#6128E3"/>
<path d="M28.0013 26.6667C28.7377 26.6667 29.3346 26.0697 29.3346 25.3333C29.3346 24.597 28.7377 24 28.0013 24C27.2649 24 26.668 24.597 26.668 25.3333C26.668 26.0697 27.2649 26.6667 28.0013 26.6667Z" fill="#6128E3"/>
<path d="M68.0013 50.6667H63.1L52.1 42.6667H56.0013C56.7373 42.6667 57.3346 42.0693 57.3346 41.3333V33.3333C57.3346 32.5973 56.7373 32 56.0013 32H40.0013C39.2653 32 38.668 32.5973 38.668 33.3333V41.3333C38.668 42.0693 39.2653 42.6667 40.0013 42.6667H43.9026L32.9026 50.6667H28.0013C27.2653 50.6667 26.668 51.264 26.668 52V60C26.668 60.736 27.2653 61.3333 28.0013 61.3333H38.668C39.404 61.3333 40.0013 60.736 40.0013 60V52C40.0013 51.264 39.404 50.6667 38.668 50.6667H37.4333L46.668 43.952V64H42.668C41.932 64 41.3346 64.5973 41.3346 65.3333V70.6667C41.3346 71.4027 41.932 72 42.668 72H53.3346C54.0706 72 54.668 71.4027 54.668 70.6667V65.3333C54.668 64.5973 54.0706 64 53.3346 64H49.3346V43.952L58.5693 50.6667H57.3346C56.5986 50.6667 56.0013 51.264 56.0013 52V60C56.0013 60.736 56.5986 61.3333 57.3346 61.3333H68.0013C68.7373 61.3333 69.3346 60.736 69.3346 60V52C69.3346 51.264 68.7373 50.6667 68.0013 50.6667ZM37.3346 58.6667H29.3346V53.3333H37.3346V58.6667ZM52.0013 69.3333H44.0013V66.6667H52.0013V69.3333ZM41.3346 34.6667H54.668V40H48.004C48.0013 40 48.0013 40 47.9986 40H41.3346V34.6667ZM66.668 58.6667H58.668V53.3333H66.668V58.6667Z" fill="#6128E3"/>
</svg>
