<svg width="95" height="95" viewBox="0 0 95 95" fill="none" xmlns="http://www.w3.org/2000/svg">
<rect width="95" height="95" rx="47.5" fill="#FFB92F"/>
<path d="M65.038 45.0605C57.3383 45.0605 51.0742 51.3247 51.0742 59.0242C51.0742 66.7238 57.3383 72.9879 65.038 72.9879C72.7376 72.9879 79.0016 66.7238 79.0016 59.0242C79.0016 51.3247 72.7375 45.0605 65.038 45.0605V45.0605ZM65.038 71.1129C58.3722 71.1129 52.9492 65.6899 52.9492 59.0242C52.9492 52.3584 58.3722 46.9355 65.038 46.9355C71.7037 46.9355 77.1266 52.3585 77.1266 59.0242C77.1266 65.69 71.7036 71.1129 65.038 71.1129Z" fill="#0A021D"/>
<path d="M65.8325 50.5109C65.6611 50.2368 65.3607 50.0703 65.0375 50.0703C64.7142 50.0703 64.4138 50.2368 64.2425 50.5109L59.2323 58.5271C59.0423 58.8311 59.0423 59.2168 59.2323 59.5208L64.2425 67.5369C64.4138 67.8111 64.7142 67.9776 65.0375 67.9776C65.3607 67.9776 65.6611 67.8111 65.8325 67.5369L70.8426 59.5208C71.0326 59.2168 71.0326 58.8311 70.8426 58.5271L65.8325 50.5109ZM65.0375 52.7767L68.6582 58.5699L65.0375 60.0182L61.4166 58.5698L65.0375 52.7767ZM65.0375 65.2712L62.3428 60.9598L64.6893 61.8984C64.8011 61.9432 64.9193 61.9656 65.0376 61.9656C65.1558 61.9656 65.2741 61.9432 65.3858 61.8984L67.7322 60.9599L65.0375 65.2712Z" fill="#0A021D"/>
<path d="M48.002 58.0862H34.9114V37.9815C34.9114 37.4637 34.4916 37.044 33.9739 37.044H21.9496C21.4319 37.044 21.0121 37.4637 21.0121 37.9815V58.0862H18.879V34.8822C19.69 34.7791 20.4135 34.3931 20.9475 33.826C21.5757 34.4931 22.466 34.9108 23.4526 34.9108C24.4391 34.9108 25.3294 34.4931 25.9576 33.826C26.5859 34.4931 27.4761 34.9108 28.4627 34.9108C29.4492 34.9108 30.3395 34.4931 30.9677 33.826C31.596 34.4931 32.4862 34.9108 33.4729 34.9108C34.4595 34.9108 35.3497 34.4931 35.978 33.826C36.6062 34.4931 37.4965 34.9108 38.483 34.9108C39.4695 34.9108 40.3599 34.4931 40.9881 33.826C41.6164 34.4931 42.5066 34.9108 43.4931 34.9108C44.4796 34.9108 45.37 34.4931 45.9982 33.826C46.6265 34.4931 47.5167 34.9108 48.5034 34.9108C49.4899 34.9108 50.3801 34.4931 51.0084 33.826C51.6366 34.4931 52.5269 34.9108 53.5135 34.9108C54.5 34.9108 55.3902 34.4931 56.0185 33.826C56.6467 34.4931 57.537 34.9108 58.5236 34.9108C59.5101 34.9108 60.4004 34.4931 61.0286 33.826C61.5626 34.3931 62.2862 34.7791 63.0972 34.8822V41.9895C63.0972 42.5072 63.517 42.927 64.0347 42.927C64.5525 42.927 64.9722 42.5072 64.9722 41.9895V34.5947C66.1539 34.0488 66.9762 32.8532 66.9762 31.4683V23.9532C66.9762 22.3312 65.6566 21.0117 64.0347 21.0117H17.9415C16.3196 21.0117 15 22.3312 15 23.9532V31.4683C15 32.8532 15.8224 34.0488 17.004 34.5947V58.0862H15.9375C15.4197 58.0862 15 58.506 15 59.0237C15 59.5415 15.4197 59.9612 15.9375 59.9612H48.002C48.5197 59.9612 48.9395 59.5415 48.9395 59.0237C48.9395 58.506 48.5197 58.0862 48.002 58.0862V58.0862ZM65.1009 23.9532V31.4683C65.1009 32.3327 64.3977 33.036 63.5332 33.036C62.6687 33.036 61.9656 32.3328 61.9656 31.4683V22.8867H64.0342C64.6224 22.8867 65.1009 23.3651 65.1009 23.9532ZM60.0907 31.4683C60.0907 32.3327 59.3876 33.036 58.5232 33.036C57.6589 33.036 56.9556 32.3328 56.9556 31.4683V22.8867H60.0907V31.4683ZM55.0806 31.4683C55.0806 32.3327 54.3775 33.036 53.5131 33.036C52.6487 33.036 51.9455 32.3328 51.9455 31.4683V22.8867H55.0806V31.4683ZM50.0705 31.4683C50.0705 32.3327 49.3674 33.036 48.503 33.036C47.6386 33.036 46.9354 32.3328 46.9354 31.4683V22.8867H50.0705V31.4683ZM45.0605 31.4683C45.0605 32.3327 44.3574 33.036 43.4929 33.036C42.6285 33.036 41.9254 32.3328 41.9254 31.4683V22.8867H45.0605V31.4683ZM40.0504 31.4683C40.0504 32.3327 39.3472 33.036 38.4827 33.036C37.6184 33.036 36.9152 32.3328 36.9152 31.4683V22.8867H40.0504V31.4683ZM35.0404 31.4683C35.0404 32.3327 34.3372 33.036 33.4727 33.036C32.6082 33.036 31.9051 32.3328 31.9051 31.4683V22.8867H35.0402V31.4683H35.0404ZM30.0302 31.4683C30.0302 32.3327 29.3271 33.036 28.4627 33.036C27.5984 33.036 26.8951 32.3328 26.8951 31.4683V22.8867H30.0302V31.4683ZM25.0201 31.4683C25.0201 32.3327 24.317 33.036 23.4526 33.036C22.5882 33.036 21.885 32.3328 21.885 31.4683V22.8867H25.0201V31.4683ZM16.875 23.9532C16.875 23.3651 17.3535 22.8867 17.9415 22.8867H20.01V31.4683C20.01 32.3327 19.3069 33.036 18.4425 33.036C17.5781 33.036 16.8749 32.3328 16.8749 31.4683V23.9532H16.875ZM22.8871 38.919H33.0364V58.0862H22.8871V38.919Z" fill="#0A021D"/>
<path d="M29.9648 47.0645C29.4471 47.0645 29.0273 47.4842 29.0273 48.002V50.006C29.0273 50.5237 29.4471 50.9435 29.9648 50.9435C30.4826 50.9435 30.9023 50.5237 30.9023 50.006V48.002C30.9023 47.4842 30.4826 47.0645 29.9648 47.0645Z" fill="#0A021D"/>
<path d="M49.6806 50.071H38.918V38.9199H59.0872V42.558C59.0872 43.0758 59.507 43.4955 60.0247 43.4955C60.5425 43.4955 60.9622 43.0758 60.9622 42.558V37.9824C60.9622 37.4647 60.5425 37.0449 60.0247 37.0449H37.9805C37.4627 37.0449 37.043 37.4647 37.043 37.9824V55.0167C37.043 55.5344 37.4627 55.9542 37.9805 55.9542H48.4972C49.015 55.9542 49.4347 55.5344 49.4347 55.0167C49.4347 54.4989 49.015 54.0792 48.4972 54.0792H38.918V51.9462H49.6806C50.1983 51.9462 50.6181 51.5264 50.6181 51.0087C50.6181 50.4909 50.1983 50.071 49.6806 50.071Z" fill="#0A021D"/>
</svg>
