<svg width="95" height="95" viewBox="0 0 95 95" fill="none" xmlns="http://www.w3.org/2000/svg">
<rect width="95" height="95" rx="47.5" fill="#651FFF"/>
<path d="M38.6364 65.5216H25.3691C24.8363 64.2109 23.5532 63.2825 22.0535 63.2825C20.0853 63.2825 18.4844 64.8888 18.4844 66.8636C18.4844 68.8383 20.0853 70.4453 22.0535 70.4453C23.6349 70.4453 24.965 69.4079 25.4383 67.9832H38.6364C40.2794 67.9832 41.6166 66.646 41.6166 65.003V61.9361C43.8244 63.8993 45.7726 65.1301 46.7873 65.7074V69.386C45.1678 69.9654 44.3305 71.3669 44.3305 72.8456C44.3305 74.8816 45.9868 76.5379 48.0228 76.5379C50.0589 76.5379 51.7151 74.8816 51.7151 72.8456C51.7151 71.2414 50.6808 69.8869 49.2488 69.3785V65.7208C51.1479 64.5548 52.8824 63.2768 54.4189 61.9092V65.003C54.4189 66.646 55.756 67.9832 57.3996 67.9832H70.5581C71.0314 69.4079 72.3615 70.4453 73.9429 70.4453C75.9111 70.4453 77.512 68.8383 77.512 66.8636C77.512 64.8888 75.9111 63.2825 73.9429 63.2825C72.4432 63.2825 71.1601 64.2109 70.6273 65.5216H57.3996C57.1136 65.5216 56.8804 65.2891 56.8804 65.003V59.472C58.4418 57.7446 59.5891 56.1333 60.6759 54.2638H69.6457C70.2232 55.8797 71.623 56.7224 73.1058 56.7224C75.1418 56.7224 76.7981 55.0661 76.7981 53.03C76.7981 50.994 75.1418 49.3377 73.1058 49.3377C71.5023 49.3377 70.1482 50.3712 69.6393 51.8023H61.9583C63.2491 49.0183 64.2284 45.8459 64.7127 42.2825H69.642C70.2005 43.8674 71.5576 44.747 73.1058 44.747C75.1418 44.747 76.7981 43.0907 76.7981 41.0547C76.7981 39.0186 75.1418 37.3624 73.1058 37.3624C71.5044 37.3624 70.1517 38.393 69.6412 39.8209H64.9602C65.0418 38.5674 65.0479 37.4576 65.0192 36.5451C64.9555 34.6959 64.7632 33.5787 64.7548 33.5319C64.6406 32.8786 64.0294 32.4315 63.3726 32.5252C61.1193 32.8405 59.0781 32.5717 56.8804 31.961V26.8702C56.8804 26.5841 57.1136 26.351 57.3996 26.351H70.6261C71.1578 27.6595 72.4417 28.5871 73.9429 28.5871C75.9111 28.5871 77.512 26.9856 77.512 25.0174C77.512 23.0427 75.9111 21.4363 73.9429 21.4363C72.3646 21.4363 71.0366 22.4693 70.5608 23.8894H57.3996C55.756 23.8894 54.4189 25.2266 54.4189 26.8702V31.1446C52.6245 30.4292 50.7788 29.4567 49.2488 28.4382V24.6203C50.6808 24.1119 51.7151 22.7574 51.7151 21.1532C51.7151 19.1172 50.0589 17.4609 48.0228 17.4609C45.9868 17.4609 44.3305 19.1172 44.3305 21.1532C44.3305 22.0697 44.6683 22.9543 45.3083 23.6743C45.7203 24.1079 46.2335 24.418 46.7873 24.6146V28.4878C45.2206 29.8223 43.4877 30.8411 41.6166 31.5391V26.8702C41.6166 25.2266 40.2794 23.8894 38.6364 23.8894H25.4356C24.9598 22.4693 23.6318 21.4363 22.0535 21.4363C20.0853 21.4363 18.4844 23.0427 18.4844 25.0174C18.4844 26.9856 20.0853 28.5871 22.0535 28.5871C23.5547 28.5871 24.8386 27.6595 25.3703 26.351H38.6364C38.9225 26.351 39.155 26.5841 39.155 26.8702V32.2814C35.6219 33.0412 32.898 32.4974 32.8702 32.491C32.5403 32.4195 32.1905 32.4898 31.9111 32.6839C31.6316 32.878 31.4453 33.1791 31.396 33.5156C31.0684 35.7463 30.9736 37.8376 31.0353 39.8209H26.2693C25.7588 38.393 24.406 37.3624 22.8047 37.3624C20.7686 37.3624 19.1124 39.0186 19.1124 41.0547C19.1124 43.0907 20.7686 44.747 22.8047 44.747C23.7212 44.747 24.6058 44.4093 25.3257 43.7692C25.7614 43.3554 26.0723 42.8392 26.2686 42.2825H31.2031C31.5954 45.8868 32.5708 49.0505 33.8836 51.8023H26.2712C25.7623 50.3712 24.4082 49.3377 22.8047 49.3377C20.7686 49.3377 19.1124 50.994 19.1124 53.03C19.1124 55.0661 20.7686 56.7224 22.8047 56.7224C24.1869 56.7224 25.6694 55.9494 26.2666 54.2638H35.192C36.3967 56.2785 37.7615 58.0325 39.155 59.5377V65.003C39.155 65.2891 38.9225 65.5216 38.6364 65.5216V65.5216ZM22.0535 67.9838C21.4429 67.9838 20.9459 67.4814 20.9459 66.8636C20.9459 66.2464 21.4429 65.744 22.0535 65.744C22.6815 65.744 23.1737 66.2356 23.1737 66.8636C23.1737 67.4814 22.6713 67.9838 22.0535 67.9838ZM73.9429 65.744C74.5535 65.744 75.0505 66.2464 75.0505 66.8636C75.0505 67.4814 74.5535 67.9838 73.9429 67.9838C73.3251 67.9838 72.8227 67.4814 72.8227 66.8636C72.8227 66.2356 73.3149 65.744 73.9429 65.744ZM73.1058 39.8239C73.7843 39.8239 74.3365 40.3762 74.3365 41.0547C74.3365 41.7332 73.7843 42.2855 73.1058 42.2855C72.3831 42.2855 71.875 41.7152 71.875 41.0547C71.875 40.3762 72.4273 39.8239 73.1058 39.8239ZM73.9429 23.8978C74.5535 23.8978 75.0505 24.4002 75.0505 25.0174C75.0505 25.6286 74.5535 26.1256 73.9429 26.1256C73.3251 26.1256 72.8227 25.6286 72.8227 25.0174C72.8227 24.3894 73.3149 23.8978 73.9429 23.8978ZM22.0535 26.1256C21.4429 26.1256 20.9459 25.6286 20.9459 25.0174C20.9459 24.4002 21.4429 23.8978 22.0535 23.8978C22.6815 23.8978 23.1737 24.3894 23.1737 25.0174C23.1737 25.6286 22.6713 26.1256 22.0535 26.1256ZM22.8047 42.2855C22.1262 42.2855 21.5739 41.7332 21.5739 41.0547C21.5739 40.3762 22.1262 39.8239 22.8047 39.8239C23.4774 39.8239 24.0228 40.3678 24.0322 41.0383C24.0321 41.043 24.0294 41.047 24.0294 41.0517C24.0294 41.0575 24.0327 41.0622 24.0328 41.068C24.0289 41.41 23.8852 41.7426 23.6611 41.9561C23.4219 42.1683 23.1178 42.2855 22.8047 42.2855V42.2855ZM22.8047 54.2608C22.1262 54.2608 21.5739 53.7085 21.5739 53.03C21.5739 52.3516 22.1262 51.7993 22.8047 51.7993C23.4784 51.7993 24.0252 52.3447 24.0328 53.0167C24.0327 53.0225 24.0294 53.0273 24.0294 53.0331C24.0294 53.0378 24.0321 53.0416 24.0322 53.0464C24.0223 53.7705 23.4672 54.2608 22.8047 54.2608ZM48.0228 74.0763C47.3444 74.0763 46.7921 73.524 46.7921 72.8456C46.7921 72.121 47.3502 71.6255 48.0088 71.6177C48.012 71.6177 48.0147 71.6196 48.018 71.6196C48.0231 71.6196 48.0273 71.6168 48.0323 71.6167C48.7061 71.6221 49.2536 72.1704 49.2536 72.8456C49.2536 73.524 48.7013 74.0763 48.0228 74.0763V74.0763ZM73.1058 51.7993C73.7843 51.7993 74.3365 52.3516 74.3365 53.03C74.3365 53.7085 73.7843 54.2608 73.1058 54.2608C72.3731 54.2608 71.875 53.6839 71.875 53.03C71.875 52.3516 72.4273 51.7993 73.1058 51.7993ZM48.0228 19.9225C48.7013 19.9225 49.2536 20.4748 49.2536 21.1532C49.2536 21.8317 48.7013 22.384 48.0228 22.384C47.6761 22.384 47.3377 22.2368 47.1214 22.0096C46.9093 21.7704 46.7921 21.4663 46.7921 21.1532C46.7921 20.4748 47.3444 19.9225 48.0228 19.9225ZM33.6749 35.0793C38.4522 35.5128 43.7973 34.1558 48.0968 30.6286C52.2365 33.3229 57.5251 35.3756 62.4651 35.0877C62.5024 35.5018 62.5379 36.0204 62.5589 36.6256C62.8844 46.9988 58.3756 57.2122 48.0379 63.5877C39.3503 58.6312 32.1773 48.4016 33.6749 35.0793V35.0793Z" fill="white"/>
<path d="M44.7831 50.6681C45.0211 50.8953 45.3276 51.0089 45.6335 51.0089C45.9484 51.0089 46.2639 50.8887 46.5037 50.6483L54.1852 42.9662C54.666 42.4854 54.666 41.7066 54.1852 41.2258C53.7044 40.745 52.9256 40.745 52.4448 41.2258L45.6137 48.0569L43.5734 46.1068C43.0824 45.6381 42.3036 45.6543 41.833 46.1465C41.3637 46.6381 41.3811 47.4169 41.8727 47.8869L44.7831 50.6681Z" fill="white"/>
</svg>
