<svg width="95" height="95" viewBox="0 0 95 95" fill="none" xmlns="http://www.w3.org/2000/svg">
<rect width="95" height="95" rx="47.5" fill="#5D35B5"/>
<path d="M73 26.5H23C21.6744 26.5016 20.4036 27.0289 19.4662 27.9662C18.5289 28.9036 18.0016 30.1744 18 31.5V62.5C18.0016 63.8256 18.5289 65.0964 19.4662 66.0338C20.4036 66.9711 21.6744 67.4984 23 67.5H73C74.3256 67.4984 75.5964 66.9711 76.5338 66.0338C77.4711 65.0964 77.9984 63.8256 78 62.5V31.5C77.9984 30.1744 77.4711 28.9036 76.5338 27.9662C75.5964 27.0289 74.3256 26.5016 73 26.5V26.5ZM76 36.586L71.586 41H63C62.7348 41 62.4804 41.1054 62.2929 41.2929C62.1054 41.4804 62 41.7348 62 42C62 42.2652 62.1054 42.5196 62.2929 42.7071C62.4804 42.8946 62.7348 43 63 43H72C72.2652 42.9999 72.5195 42.8946 72.707 42.707L76 39.414V46H68C67.7348 46 67.4804 46.1054 67.2929 46.2929C67.1054 46.4804 67 46.7348 67 47C67 47.2652 67.1054 47.5196 67.2929 47.7071C67.4804 47.8946 67.7348 48 68 48H76V54.586L72.707 51.293C72.5195 51.1054 72.2652 51.0001 72 51H63C62.7348 51 62.4804 51.1054 62.2929 51.2929C62.1054 51.4804 62 51.7348 62 52C62 52.2652 62.1054 52.5196 62.2929 52.7071C62.4804 52.8946 62.7348 53 63 53H71.586L76 57.414V62.5C76 63.2956 75.6839 64.0587 75.1213 64.6213C74.5587 65.1839 73.7956 65.5 73 65.5H23C22.2044 65.5 21.4413 65.1839 20.8787 64.6213C20.3161 64.0587 20 63.2956 20 62.5V57.414L24.414 53H33C33.2652 53 33.5196 52.8946 33.7071 52.7071C33.8946 52.5196 34 52.2652 34 52C34 51.7348 33.8946 51.4804 33.7071 51.2929C33.5196 51.1054 33.2652 51 33 51H24C23.7348 51.0001 23.4805 51.1054 23.293 51.293L20 54.586V48H32C32.2652 48 32.5196 47.8946 32.7071 47.7071C32.8946 47.5196 33 47.2652 33 47C33 46.7348 32.8946 46.4804 32.7071 46.2929C32.5196 46.1054 32.2652 46 32 46H20V39.414L23.293 42.707C23.4805 42.8946 23.7348 42.9999 24 43H33C33.2652 43 33.5196 42.8946 33.7071 42.7071C33.8946 42.5196 34 42.2652 34 42C34 41.7348 33.8946 41.4804 33.7071 41.2929C33.5196 41.1054 33.2652 41 33 41H24.414L20 36.586V31.5C20 30.7044 20.3161 29.9413 20.8787 29.3787C21.4413 28.8161 22.2044 28.5 23 28.5H73C73.7956 28.5 74.5587 28.8161 75.1213 29.3787C75.6839 29.9413 76 30.7044 76 31.5V36.586Z" fill="white"/>
<path d="M48 34C45.4288 34 42.9154 34.7624 40.7776 36.1909C38.6398 37.6194 36.9735 39.6497 35.9896 42.0251C35.0056 44.4006 34.7482 47.0144 35.2498 49.5362C35.7514 52.0579 36.9895 54.3743 38.8076 56.1924C40.6257 58.0105 42.9421 59.2486 45.4638 59.7502C47.9856 60.2518 50.5995 59.9944 52.9749 59.0104C55.3503 58.0265 57.3807 56.3603 58.8091 54.2224C60.2376 52.0846 61 49.5712 61 47C60.996 43.5534 59.6251 40.2491 57.188 37.812C54.7509 35.3749 51.4466 34.004 48 34V34ZM48 58C45.8244 58 43.6977 57.3549 41.8887 56.1462C40.0798 54.9375 38.6699 53.2195 37.8373 51.2095C37.0048 49.1995 36.7869 46.9878 37.2114 44.854C37.6358 42.7202 38.6835 40.7602 40.2218 39.2218C41.7602 37.6834 43.7202 36.6358 45.854 36.2114C47.9878 35.7869 50.1995 36.0048 52.2095 36.8373C54.2195 37.6699 55.9375 39.0798 57.1462 40.8887C58.3549 42.6977 59 44.8244 59 47C58.9966 49.9163 57.8365 52.7122 55.7744 54.7744C53.7122 56.8365 50.9163 57.9966 48 58Z" fill="white"/>
<path d="M51 40V39C51 38.7348 50.8946 38.4804 50.7071 38.2929C50.5196 38.1054 50.2652 38 50 38C49.7348 38 49.4804 38.1054 49.2929 38.2929C49.1054 38.4804 49 38.7348 49 39V40H47V39C47 38.7348 46.8946 38.4804 46.7071 38.2929C46.5196 38.1054 46.2652 38 46 38C45.7348 38 45.4804 38.1054 45.2929 38.2929C45.1054 38.4804 45 38.7348 45 39V40H42C41.7348 40 41.4804 40.1054 41.2929 40.2929C41.1054 40.4804 41 40.7348 41 41C41 41.2652 41.1054 41.5196 41.2929 41.7071C41.4804 41.8946 41.7348 42 42 42H43V52H42C41.7348 52 41.4804 52.1054 41.2929 52.2929C41.1054 52.4804 41 52.7348 41 53C41 53.2652 41.1054 53.5196 41.2929 53.7071C41.4804 53.8946 41.7348 54 42 54H45V55C45 55.2652 45.1054 55.5196 45.2929 55.7071C45.4804 55.8946 45.7348 56 46 56C46.2652 56 46.5196 55.8946 46.7071 55.7071C46.8946 55.5196 47 55.2652 47 55V54H49V55C49 55.2652 49.1054 55.5196 49.2929 55.7071C49.4804 55.8946 49.7348 56 50 56C50.2652 56 50.5196 55.8946 50.7071 55.7071C50.8946 55.5196 51 55.2652 51 55V54C51.8144 54.0036 52.6103 53.7575 53.2805 53.2948C53.9507 52.8321 54.463 52.1751 54.7483 51.4123C55.0336 50.6495 55.0782 49.8176 54.8761 49.0286C54.674 48.2397 54.2349 47.5317 53.618 47C54.2349 46.4683 54.674 45.7603 54.8761 44.9714C55.0782 44.1824 55.0336 43.3505 54.7483 42.5877C54.463 41.8249 53.9507 41.1679 53.2805 40.7052C52.6103 40.2425 51.8144 39.9964 51 40V40ZM51 52H45V48H51C51.5304 48 52.0391 48.2107 52.4142 48.5858C52.7893 48.9609 53 49.4696 53 50C53 50.5304 52.7893 51.0391 52.4142 51.4142C52.0391 51.7893 51.5304 52 51 52ZM51 46H45V42H51C51.5304 42 52.0391 42.2107 52.4142 42.5858C52.7893 42.9609 53 43.4696 53 44C53 44.5304 52.7893 45.0391 52.4142 45.4142C52.0391 45.7893 51.5304 46 51 46Z" fill="white"/>
<path d="M27 30H24C23.4696 30 22.9609 30.2107 22.5858 30.5858C22.2107 30.9609 22 31.4696 22 32V35C22 35.5304 22.2107 36.0391 22.5858 36.4142C22.9609 36.7893 23.4696 37 24 37H27C27.5304 37 28.0391 36.7893 28.4142 36.4142C28.7893 36.0391 29 35.5304 29 35V32C29 31.4696 28.7893 30.9609 28.4142 30.5858C28.0391 30.2107 27.5304 30 27 30ZM24 35V32H27V35H24Z" fill="white"/>
<path d="M64 48C64.5523 48 65 47.5523 65 47C65 46.4477 64.5523 46 64 46C63.4477 46 63 46.4477 63 47C63 47.5523 63.4477 48 64 48Z" fill="white"/>
</svg>
