<svg width="96" height="96" viewBox="0 0 96 96" fill="none" xmlns="http://www.w3.org/2000/svg">
<rect width="96" height="96" rx="48" fill="#F7F3FF"/>
<path d="M64 76C57.3828 76 52 70.6172 52 64C52 63.6406 52.0195 63.2715 52.0605 62.8887L48.5859 59.4141C48.2109 59.0391 48 58.5312 48 58V56H46C44.8945 56 44 55.1055 44 54V52H42C40.8945 52 40 51.1055 40 50V48H38C37.4688 48 36.9609 47.7891 36.5859 47.4141L34.5859 45.4141C34.2109 45.0391 34 44.5312 34 44V36C34 34.8945 34.8945 34 36 34H44C44.5312 34 45.0391 34.2109 45.4141 34.5859L62.8887 52.0605C63.2715 52.0195 63.6406 52 64 52C70.6172 52 76 57.3828 76 64C76 70.6172 70.6172 76 64 76ZM52 57.1719L55.5977 60.7695C56.0645 61.2344 56.2695 61.9004 56.1504 62.5488C56.0469 63.0996 56 63.5625 56 64C56 68.4121 59.5879 72 64 72C68.4121 72 72 68.4121 72 64C72 59.5879 68.4121 56 64 56C63.5625 56 63.0996 56.0469 62.5488 56.1504C61.9004 56.2656 61.2363 56.0645 60.7695 55.5977L43.1719 38H38V43.1719L38.8281 44H42C43.1055 44 44 44.8945 44 46V48H46C47.1055 48 48 48.8945 48 50V52H50C51.1055 52 52 52.8945 52 54V57.1719Z" fill="#6128E3"/>
<path d="M54 68H30C28.8945 68 28 67.1055 28 66V30C28 28.8945 28.8945 28 30 28H66C67.1055 28 68 28.8945 68 30V54C68 55.1055 67.1055 56 66 56C64.8945 56 64 55.1055 64 54V32H32V64H54C55.1055 64 56 64.8945 56 66C56 67.1055 55.1055 68 54 68Z" fill="#6128E3"/>
<path d="M30 68C29.4883 68 28.9766 67.8047 28.5859 67.4141L20.5859 59.4141C20.2109 59.0391 20 58.5312 20 58V22C20 20.8945 20.8945 20 22 20H58C58.5312 20 59.0391 20.2109 59.4141 20.5859L67.4141 28.5859C68.1953 29.3672 65.3672 32.1953 64.5859 31.4141L57.1719 24H24V57.1719L31.4141 64.5859C32.1953 65.3672 30.5117 68 30 68Z" fill="#6128E3"/>
<path d="M30 32C29.4883 32 28.9766 31.8047 28.5859 31.4141L22.5859 25.4141C21.8047 24.6328 21.8047 23.3672 22.5859 22.5859C23.3672 21.8047 24.6328 21.8047 25.4141 22.5859L31.4141 28.5859C32.1953 29.3672 32.1953 30.6328 31.4141 31.4141C31.0234 31.8047 30.5117 32 30 32Z" fill="#6128E3"/>
<path d="M64 70C60.6914 70 58 67.3086 58 64C58 60.6914 60.6914 58 64 58C67.3086 58 70 60.6914 70 64C70 67.3086 67.3086 70 64 70ZM64 62C62.8965 62 62 62.8965 62 64C62 65.1035 62.8965 66 64 66C65.1035 66 66 65.1035 66 64C66 62.8965 65.1035 62 64 62Z" fill="#6128E3"/>
</svg>
