<svg width="95" height="95" viewBox="0 0 95 95" fill="none" xmlns="http://www.w3.org/2000/svg">
<rect width="95" height="95" rx="47.5" fill="#651FFF"/>
<g clip-path="url(#clip0_2030_50947)">
<path d="M68.929 45.0444C66.6427 42.7579 63.5538 41.7516 60.5607 42.0247V31.5312C60.5607 29.205 58.6683 27.3125 56.3422 27.3125H28.1565C25.9576 27.3125 24 29.1612 24 31.5312V59.6562C24 61.9825 25.8924 63.875 28.2186 63.875C57.3853 63.7783 56.5091 64.1064 57.847 63.5959L60.5266 66.2756C61.0758 66.8248 61.9661 66.8247 62.5152 66.2756L68.9291 59.8614C73.0234 55.7668 73.0239 49.1395 68.929 45.0444ZM39.5618 30.125H45.1865V37.1562H39.5618V30.125ZM28.2186 61.0625C27.4432 61.0625 26.8124 60.4317 26.8124 59.6562V31.5312C26.8124 30.7558 27.4433 30.125 28.2186 30.125H36.7494V38.5625C36.7494 39.3391 37.379 39.9688 38.1556 39.9688H46.5927C47.3693 39.9688 47.9989 39.3391 47.9989 38.5625V30.125H56.3423C57.1177 30.125 57.7484 30.7558 57.7484 31.5312V42.6794C56.4226 43.1891 55.1801 43.9769 54.1128 45.0444C50.0279 49.1294 50.0279 55.7764 54.1128 59.8615L55.3136 61.0625H28.2186ZM66.9404 57.8728L61.5208 63.2926L56.1012 57.8728C53.106 54.8773 53.1056 50.029 56.1012 47.0331C59.0897 44.0446 63.9518 44.0445 66.9403 47.0331C69.9356 50.0285 69.9361 54.8769 66.9404 57.8728Z" fill="white"/>
<path d="M61.5669 48.0039C59.096 48.0039 57.0859 50.0142 57.0859 52.4852C57.0859 54.9561 59.0961 56.9665 61.5669 56.9665C64.0378 56.9665 66.0479 54.9562 66.0479 52.4852C66.0479 50.0143 64.0377 48.0039 61.5669 48.0039ZM61.5669 54.154C60.6468 54.154 59.8983 53.4054 59.8983 52.4852C59.8983 51.5651 60.6467 50.8164 61.5669 50.8164C62.4871 50.8164 63.2356 51.565 63.2356 52.4852C63.2355 53.4053 62.487 54.154 61.5669 54.154Z" fill="white"/>
<path d="M39.5675 49.8125H31.121C30.3444 49.8125 29.7148 50.4421 29.7148 51.2188C29.7148 51.9954 30.3444 52.625 31.121 52.625H39.5675C40.3441 52.625 40.9737 51.9954 40.9737 51.2188C40.9737 50.4421 40.3441 49.8125 39.5675 49.8125Z" fill="white"/>
<path d="M39.5581 55.4375H31.121C30.3444 55.4375 29.7148 56.0671 29.7148 56.8438C29.7148 57.6204 30.3444 58.25 31.121 58.25H39.5581C40.3348 58.25 40.9643 57.6204 40.9643 56.8438C40.9643 56.0671 40.3348 55.4375 39.5581 55.4375Z" fill="white"/>
</g>
<defs>
<clipPath id="clip0_2030_50947">
<rect width="48" height="48" fill="white" transform="translate(24 23)"/>
</clipPath>
</defs>
</svg>
