<svg width="95" height="95" viewBox="0 0 95 95" fill="none" xmlns="http://www.w3.org/2000/svg">
<rect width="95" height="95" rx="47.5" fill="url(#paint0_linear_2030_50934)"/>
<g clip-path="url(#clip0_2030_50934)">
<path d="M31.0312 31.4375H40.4062C41.1829 31.4375 41.8125 30.8079 41.8125 30.0312C41.8125 29.2546 41.1829 28.625 40.4062 28.625H31.0312C30.2546 28.625 29.625 29.2546 29.625 30.0312C29.625 30.8079 30.2546 31.4375 31.0312 31.4375Z" fill="white"/>
<path d="M31.0312 37.0625H40.4062C41.1829 37.0625 41.8125 36.4329 41.8125 35.6562C41.8125 34.8796 41.1829 34.25 40.4062 34.25H31.0312C30.2546 34.25 29.625 34.8796 29.625 35.6562C29.625 36.4329 30.2546 37.0625 31.0312 37.0625Z" fill="white"/>
<path d="M29.625 41.2812C29.625 42.0579 30.2546 42.6875 31.0312 42.6875H49.7812C50.5579 42.6875 51.1875 42.0579 51.1875 41.2812C51.1875 40.5046 50.5579 39.875 49.7812 39.875H31.0312C30.2546 39.875 29.625 40.5046 29.625 41.2812Z" fill="white"/>
<path d="M49.7812 45.5H31.0312C30.2546 45.5 29.625 46.1296 29.625 46.9062C29.625 47.6829 30.2546 48.3125 31.0312 48.3125H49.7812C50.5579 48.3125 51.1875 47.6829 51.1875 46.9062C51.1875 46.1296 50.5579 45.5 49.7812 45.5Z" fill="white"/>
<path d="M49.7812 51.125H31.0312C30.2546 51.125 29.625 51.7546 29.625 52.5312C29.625 53.3079 30.2546 53.9375 31.0312 53.9375H49.7812C50.5579 53.9375 51.1875 53.3079 51.1875 52.5312C51.1875 51.7546 50.5579 51.125 49.7812 51.125Z" fill="white"/>
<path d="M49.7812 62.5625H42.2812C41.5046 62.5625 40.875 63.1921 40.875 63.9688C40.875 64.7454 41.5046 65.375 42.2812 65.375H49.7812C50.5579 65.375 51.1875 64.7454 51.1875 63.9688C51.1875 63.1921 50.5579 62.5625 49.7812 62.5625Z" fill="white"/>
<path d="M38.5312 56.75H31.0312C30.2546 56.75 29.625 57.3796 29.625 58.1562C29.625 58.9329 30.2546 59.5625 31.0312 59.5625H38.5312C39.3079 59.5625 39.9375 58.9329 39.9375 58.1562C39.9375 57.3796 39.3079 56.75 38.5312 56.75Z" fill="white"/>
<path d="M63.8044 56.9375C64.3849 58.5743 65.948 59.75 67.7812 59.75C70.1075 59.75 72 57.8575 72 55.5312C72 53.205 70.1075 51.3125 67.7812 51.3125C65.948 51.3125 64.3849 52.4882 63.8044 54.125H56.8125V51.3125H60.2812C60.6986 51.3125 61.0944 51.1271 61.3615 50.8065L63.5028 48.2369C63.9597 48.4068 64.4535 48.5 64.9688 48.5C67.295 48.5 69.1875 46.6075 69.1875 44.2812C69.1875 41.955 67.295 40.0625 64.9688 40.0625C62.6425 40.0625 60.75 41.955 60.75 44.2812C60.75 45.0677 60.9669 45.8042 61.3433 46.4352L59.6227 48.5H56.8125V33.7812C56.8125 33.4083 56.6644 33.0507 56.4006 32.7869L47.0256 23.4119C46.7618 23.1482 46.4042 23 46.0312 23H25.4062C24.6296 23 24 23.6296 24 24.4062V69.5938C24 70.3704 24.6296 71 25.4062 71H55.4062C56.1829 71 56.8125 70.3704 56.8125 69.5938V62.5625H59.6227L61.3433 64.6273C60.9669 65.2583 60.75 65.9948 60.75 66.7812C60.75 69.1075 62.6425 71 64.9688 71C67.295 71 69.1875 69.1075 69.1875 66.7812C69.1875 64.455 67.295 62.5625 64.9688 62.5625C64.4535 62.5625 63.9597 62.6557 63.5029 62.8256L61.3616 60.256C61.0944 59.9353 60.6987 59.75 60.2813 59.75H56.8126V56.9375H63.8044ZM67.7812 54.125C68.5567 54.125 69.1875 54.7558 69.1875 55.5312C69.1875 56.3067 68.5567 56.9375 67.7812 56.9375C67.0058 56.9375 66.375 56.3067 66.375 55.5312C66.375 54.7558 67.0058 54.125 67.7812 54.125ZM64.9688 42.875C65.7442 42.875 66.375 43.5058 66.375 44.2812C66.375 45.0567 65.7442 45.6875 64.9688 45.6875C64.1933 45.6875 63.5625 45.0567 63.5625 44.2812C63.5625 43.5058 64.1933 42.875 64.9688 42.875ZM47.4375 27.8012L52.0113 32.375H47.4375V27.8012ZM54 68.1875H26.8125V25.8125H44.625V33.7812C44.625 34.5579 45.2546 35.1875 46.0312 35.1875H54V68.1875ZM64.9688 65.375C65.7442 65.375 66.375 66.0058 66.375 66.7812C66.375 67.5567 65.7442 68.1875 64.9688 68.1875C64.1933 68.1875 63.5625 67.5567 63.5625 66.7812C63.5625 66.0058 64.1933 65.375 64.9688 65.375Z" fill="white"/>
</g>
<defs>
<linearGradient id="paint0_linear_2030_50934" x1="2.81642" y1="37.4857" x2="99.8475" y2="39.0704" gradientUnits="userSpaceOnUse">
<stop stop-color="#6128E3"/>
<stop offset="1" stop-color="#FFB92F"/>
</linearGradient>
<clipPath id="clip0_2030_50934">
<rect width="48" height="48" fill="white" transform="translate(24 23)"/>
</clipPath>
</defs>
</svg>
