<svg width="193" height="42" viewBox="0 0 193 42" fill="none" xmlns="http://www.w3.org/2000/svg">
<path d="M73.972 23.908V19.82H66.692V15.48H75.344V11.28H62.156V32H66.692V23.908H73.972ZM76.0985 24.972C76.0985 29.396 79.3465 32.336 83.8265 32.336C88.2785 32.336 91.5265 29.396 91.5265 24.972C91.5265 20.548 88.2785 17.58 83.8265 17.58C79.3465 17.58 76.0985 20.548 76.0985 24.972ZM80.4385 24.944C80.4385 22.844 81.8105 21.444 83.8265 21.444C85.8145 21.444 87.1865 22.844 87.1865 24.944C87.1865 27.072 85.8145 28.472 83.8265 28.472C81.8105 28.472 80.4385 27.072 80.4385 24.944ZM98.3383 32V10.888H94.0263V32H98.3383ZM103.701 15.816C105.045 15.816 106.137 14.724 106.137 13.352C106.137 11.98 105.045 10.916 103.701 10.916C102.329 10.916 101.237 11.98 101.237 13.352C101.237 14.724 102.329 15.816 103.701 15.816ZM101.573 32H105.885V18H101.573V32ZM108.364 24.972C108.364 29.396 111.612 32.336 116.092 32.336C120.544 32.336 123.792 29.396 123.792 24.972C123.792 20.548 120.544 17.58 116.092 17.58C111.612 17.58 108.364 20.548 108.364 24.972ZM112.704 24.944C112.704 22.844 114.076 21.444 116.092 21.444C118.08 21.444 119.452 22.844 119.452 24.944C119.452 27.072 118.08 28.472 116.092 28.472C114.076 28.472 112.704 27.072 112.704 24.944ZM132.788 32.364C136.624 32.364 139.396 30.376 139.9 27.268H135.952C135.644 28.276 134.496 28.864 132.872 28.864C130.968 28.864 129.932 27.996 129.68 26.148L139.844 26.092V25C139.844 20.436 137.1 17.552 132.704 17.552C128.476 17.552 125.536 20.604 125.536 24.972C125.536 29.284 128.56 32.364 132.788 32.364ZM132.732 21.052C134.468 21.052 135.56 22.004 135.56 23.488H129.736C130.072 21.808 131.024 21.052 132.732 21.052ZM148.277 32.364C150.293 32.364 152.029 31.496 152.785 30.208L153.009 32H157.069V10.888H152.757V19.288C151.945 18.252 150.293 17.552 148.557 17.552C144.301 17.552 141.641 20.632 141.641 25.084C141.641 29.508 144.245 32.364 148.277 32.364ZM149.313 28.416C147.269 28.416 145.981 26.988 145.981 24.916C145.981 22.844 147.269 21.416 149.313 21.416C151.329 21.416 152.729 22.816 152.729 24.916C152.729 27.016 151.329 28.416 149.313 28.416ZM159.608 24.748C159.608 28.948 162.324 31.832 166.244 31.832C168.064 31.832 169.632 31.188 170.472 30.18V32C170.472 33.988 169.156 35.22 167.084 35.22C165.18 35.22 164.004 34.296 163.92 32.728H159.552C159.944 36.704 162.828 39.14 167.112 39.14C171.9 39.14 174.784 36.116 174.784 31.104V18H170.724L170.5 19.4C169.744 18.252 168.232 17.524 166.328 17.524C162.38 17.524 159.608 20.492 159.608 24.748ZM163.948 24.636C163.948 22.648 165.264 21.276 167.168 21.276C169.156 21.276 170.472 22.592 170.472 24.636C170.472 26.708 169.156 28.08 167.196 28.08C165.292 28.08 163.948 26.652 163.948 24.636ZM184.522 32.364C188.358 32.364 191.13 30.376 191.634 27.268H187.686C187.378 28.276 186.23 28.864 184.606 28.864C182.702 28.864 181.666 27.996 181.414 26.148L191.578 26.092V25C191.578 20.436 188.834 17.552 184.438 17.552C180.21 17.552 177.27 20.604 177.27 24.972C177.27 29.284 180.294 32.364 184.522 32.364ZM184.466 21.052C186.202 21.052 187.294 22.004 187.294 23.488H181.47C181.806 21.808 182.758 21.052 184.466 21.052Z" fill="#10131F"/>
<path d="M27.2719 12.0956C28.1045 11.2375 28.6218 10.0523 28.6218 8.7441C28.6218 6.12412 26.5525 4 24 4C22.3863 4 20.9679 4.85105 20.1422 6.13819C19.9195 6.36326 1.5212 29.6407 1.34989 29.9079C0.517345 30.766 0 31.9477 0 33.2559C0 35.8759 2.06938 38 4.62184 38C6.23555 38 7.65396 37.1489 8.47966 35.8618C8.69893 35.6403 27.1006 12.3628 27.2719 12.0956Z" fill="#3cc3a3"/>
<path d="M37.9172 23.1382C38.7532 22.2801 39.2705 21.0949 39.2705 19.7832C39.2705 17.1632 37.2011 15.0391 34.6487 15.0391C33.035 15.0391 31.6165 15.8901 30.7874 17.1773C30.5647 17.4058 20.9031 29.6301 20.7283 29.9009C19.8923 30.759 19.375 31.9441 19.375 33.2559C19.375 35.8758 21.4444 38 23.9968 38C25.6105 38 27.029 37.1489 27.8581 35.8618C28.0808 35.6367 37.7459 23.4089 37.9172 23.1382Z" fill="#3cc3a3"/>
<path d="M47.9995 8.7441C47.9995 11.3641 45.9302 13.4882 43.3777 13.4882C40.8252 13.4882 38.7559 11.3641 38.7559 8.7441C38.7559 6.12412 40.8252 4 43.3777 4C45.9302 4 47.9995 6.12412 47.9995 8.7441Z" fill="#3cc3a3"/>
<path d="M9.24368 8.7441C9.24368 11.3641 7.1743 13.4882 4.62184 13.4882C2.06938 13.4882 0 11.3641 0 8.7441C0 6.12412 2.06938 4 4.62184 4C7.1743 4 9.24368 6.12412 9.24368 8.7441Z" fill="#3cc3a3"/>
</svg>
